<?xml version="1.0" encoding="UTF-8"?>
<svg version="1.1" xmlns="http://www.w3.org/2000/svg" width="1268" height="398">
<path d="M0 0 C4.64121178 1.01959837 7.79531845 4.36489695 11.22265625 7.48828125 C11.73022461 7.94912109 12.23779297 8.40996094 12.76074219 8.88476562 C15.58138214 11.45203459 18.38138745 14.04035621 21.16796875 16.64453125 C25.78252701 20.95332243 30.55149864 25.07021146 35.36328125 29.15625 C41.31925276 34.22283429 47.19323454 39.33998766 52.91015625 44.67578125 C53.9863956 45.66339672 55.06320919 46.65038684 56.140625 47.63671875 C58.15136962 49.47901419 60.08864456 51.35064618 62.0234375 53.27734375 C63.35955078 54.52644531 63.35955078 54.52644531 64.72265625 55.80078125 C65.47546875 56.53941406 66.22828125 57.27804688 67.00390625 58.0390625 C72.43287956 60.4834182 77.58524678 60.31264404 83.22265625 58.48828125 C86.41392805 55.42745836 87.95754145 51.87566442 89.72265625 47.86328125 C90.79135542 45.67435545 91.86305507 43.48689244 92.9375 41.30078125 C93.73969971 39.61275391 93.73969971 39.61275391 94.55810547 37.890625 C97.23606822 32.416866 100.25660379 27.14865468 103.28515625 21.86328125 C103.82140625 20.91114746 104.35765625 19.95901367 104.91015625 18.97802734 C112.11775986 6.22487884 112.11775986 6.22487884 116.22265625 3.48828125 C120.10741816 3.06448904 122.32442406 2.87370133 125.59765625 5.11328125 C127.68582503 8.16522024 128.15365009 9.76194881 128.22265625 13.48828125 C126.6299351 20.37959721 123.94083881 26.804003 121.02734375 33.22265625 C120.22134348 35.03124524 119.41535422 36.83983913 118.609375 38.6484375 C117.3493578 41.45575779 116.08697661 44.26200241 114.82373047 47.06787109 C113.5942015 49.80444177 112.37301565 52.544626 111.15234375 55.28515625 C110.77318817 56.11964294 110.39403259 56.95412964 110.00338745 57.81390381 C108.14386219 61.99378973 106.4522461 65.85316544 106.22265625 70.48828125 C107.80822992 73.62568455 107.80822992 73.62568455 110.06196594 73.87355042 C110.80633408 73.87862106 111.55070221 73.88369171 112.31762695 73.88891602 C113.16222977 73.90225479 114.00683258 73.91559357 114.87702942 73.92933655 C115.79159409 73.92945236 116.70615875 73.92956818 117.6484375 73.9296875 C118.58817917 73.94289536 119.52792084 73.95610321 120.49613953 73.9697113 C123.50917471 74.01071444 126.5219047 74.03229799 129.53515625 74.05078125 C132.53760167 74.07458537 135.53976008 74.10277422 138.54203796 74.14256287 C140.4117384 74.16686337 142.28159032 74.18176786 144.15144348 74.18617249 C152.30569111 74.28343058 152.30569111 74.28343058 156.22265625 76.48828125 C165.3816514 88.4339058 163.34944892 115.06089441 163.22265625 129.48828125 C164.49157715 129.46471558 164.49157715 129.46471558 165.78613281 129.44067383 C168.98435109 129.3889418 172.18235316 129.35164219 175.38085938 129.32348633 C176.75397851 129.30858202 178.12705164 129.28825128 179.5 129.26196289 C189.90083835 129.06808761 199.32109989 129.74100501 208.84765625 134.17578125 C216.87090483 137.29593348 223.44527679 135.31885171 231.32641602 132.48730469 C261.94292943 121.60861391 295.43277438 125.09976364 325.22265625 136.48828125 C325.88265625 136.81828125 326.54265625 137.14828125 327.22265625 137.48828125 C334.32650545 138.18702052 339.21066937 136.61995368 345.71875 133.77734375 C354.10701386 130.69136039 362.39261701 130.17096284 371.265625 130.15234375 C372.3922908 130.14568695 373.5189566 130.13903015 374.67976379 130.13217163 C377.05219911 130.1220989 379.42466246 130.11735293 381.79711914 130.11767578 C385.38281171 130.11331451 388.96725983 130.07696756 392.55273438 130.0390625 C410.01179554 129.9523061 423.82568545 131.58433906 439.22265625 140.48828125 C439.55265625 140.81828125 439.88265625 141.14828125 440.22265625 141.48828125 C444.35913694 141.9139911 446.39855422 141.05331884 449.78515625 138.73828125 C460.96851502 131.66718894 472.45017896 130.33373903 485.3828125 130.28515625 C486.56427353 130.27945618 487.74573456 130.2737561 488.96299744 130.2678833 C491.46189484 130.25845121 493.96080458 130.25190645 496.4597168 130.24804688 C500.24745951 130.23837748 504.03465094 130.20735087 507.82226562 130.17578125 C510.25911139 130.16924673 512.695961 130.16399802 515.1328125 130.16015625 C516.80852074 130.14163605 516.80852074 130.14163605 518.51808167 130.1227417 C527.63878817 130.14806767 536.51418559 131.29640698 544.84765625 135.17578125 C553.19775939 138.42304358 561.18252375 136.26867615 569.22265625 133.17578125 C602.75171037 121.29270755 639.3084736 124.70828281 671.3359375 139.54296875 C682.00754375 144.72852374 691.23020516 151.80999789 700.22265625 159.48828125 C700.83238281 159.95234375 701.44210937 160.41640625 702.0703125 160.89453125 C722.10122674 176.42677681 735.00500128 205.32202544 740.22265625 229.48828125 C740.38491699 230.23513184 740.54717773 230.98198242 740.71435547 231.75146484 C747.88484378 266.30152667 741.8810188 304.19205756 722.9609375 334.1796875 C718.15372581 341.28563567 712.84891756 348.01450689 707.22265625 354.48828125 C706.64644531 355.16117187 706.07023437 355.8340625 705.4765625 356.52734375 C684.8520023 378.85147796 651.56676237 392.19605978 621.55175781 393.61450195 C599.73640735 394.19080482 579.95931564 391.88099702 559.66015625 383.67578125 C553.35709898 381.49836146 549.43470146 382.30187841 543.41015625 384.80078125 C527.57701481 391.1610328 510.60251254 391.00512744 493.78515625 391.17578125 C491.49982575 391.20801746 489.21450662 391.24106839 486.92919922 391.27490234 C480.36049581 391.36677476 473.79173296 391.43041646 467.22265625 391.48828125 C465.58349452 391.50489109 463.9443342 391.5216405 462.30517578 391.53857422 C443.12854541 391.72364876 423.95846182 391.39373566 404.78515625 391.05078125 C403.66030823 391.03122375 402.53546021 391.01166626 401.37652588 390.99151611 C390.30745942 390.79429218 379.24039831 390.55478274 368.1796875 390.0703125 C367.39839981 390.04054825 366.61711212 390.010784 365.81214905 389.9801178 C355.69494714 389.48581973 346.27891741 387.02906024 337.22265625 382.48828125 C330.28001823 381.48047896 325.1564793 383.49927123 318.80908203 386.06103516 C313.36838652 388.20029497 307.94705727 389.63097818 302.22265625 390.80078125 C301.44615723 390.9596582 300.6696582 391.11853516 299.86962891 391.28222656 C266.50902789 397.806651 230.46237146 392.49063992 201.51953125 374.22265625 C194.41408278 369.40711535 187.7666006 364.03555271 181.22265625 358.48828125 C177.87603996 361.71869558 175.00656404 365.01915443 172.22265625 368.73828125 C160.33309341 383.36855592 143.4618555 389.39090608 125.22265625 391.48828125 C116.23773202 392.39235437 107.23911306 393.00456882 98.22265625 393.48828125 C97.36559082 393.53645996 96.50852539 393.58463867 95.62548828 393.63427734 C85.23620111 394.15583232 77.17908396 392.69558848 67.97265625 387.73828125 C62.50425832 385.25264583 56.94543634 386.59507423 51.28515625 387.92578125 C43.42292421 389.76059752 35.88532965 390.64388576 27.83984375 390.65625 C27.0631131 390.6595784 26.28638245 390.6629068 25.4861145 390.66633606 C23.850775 390.67136702 22.21542536 390.67374558 20.58007812 390.67358398 C18.12482001 390.67575721 15.6700219 390.69391745 13.21484375 390.71289062 C4.74170616 390.74231161 -3.3398191 390.38717889 -11.70703125 388.94360352 C-19.91471893 387.72641701 -27.98757412 388.30736369 -36.16015625 389.48828125 C-44.00093391 390.53679471 -51.72832147 390.79583241 -59.63183594 390.74902344 C-61.77697988 390.73828307 -63.92128694 390.74901417 -66.06640625 390.76171875 C-74.58281499 390.76924331 -82.81544786 390.15191799 -91.24633789 388.94140625 C-98.75386304 387.97798464 -106.01041722 388.19877312 -113.50198364 389.20904541 C-122.42034635 390.4040462 -131.19781119 390.80069954 -140.18945312 390.74902344 C-142.40912949 390.73824831 -144.62800312 390.74903502 -146.84765625 390.76171875 C-160.49034881 390.7760239 -176.64793401 390.70847316 -188.609375 383.36328125 C-193.95379738 381.20625312 -199.10531648 382.28297843 -204.25585938 384.41918945 C-204.88169922 384.68948975 -205.50753906 384.95979004 -206.15234375 385.23828125 C-212.10779033 387.64079486 -218.00066512 389.43907 -224.27734375 390.80078125 C-225.00614746 390.9596582 -225.73495117 391.11853516 -226.48583984 391.28222656 C-260.76143745 398.41481148 -296.47999777 391.70396573 -326.16015625 373.40234375 C-335.28081577 367.31457824 -344.01766896 360.24795604 -351.77734375 352.48828125 C-356.34067429 352.13234147 -359.9997433 353.02172098 -363.90234375 355.36328125 C-367.30278584 358.59417221 -369.59186472 362.66479982 -371.96875 366.671875 C-375.64209097 372.39213168 -379.64315644 376.52771756 -385.40234375 380.11328125 C-386.01625977 380.50008057 -386.63017578 380.88687988 -387.26269531 381.28540039 C-399.87801136 389.00876267 -412.82552037 390.83460626 -427.40234375 390.67578125 C-428.66691406 390.66716064 -429.93148437 390.65854004 -431.234375 390.6496582 C-435.08252785 390.61371445 -438.92962994 390.55615273 -442.77734375 390.48828125 C-443.92428711 390.46894531 -445.07123047 390.44960938 -446.25292969 390.4296875 C-467.45213366 390.00281576 -485.68856503 387.7088628 -501.77734375 372.48828125 C-517.48696542 355.89516592 -519.39869619 335.48310398 -519.09765625 313.75390625 C-519.08505617 311.66584409 -519.07459598 309.57776807 -519.06613159 307.48968506 C-519.03971416 302.01254812 -518.99104324 296.53587003 -518.9354248 291.05895996 C-518.83852797 281.33244892 -518.77229235 271.60576432 -518.72265625 261.87890625 C-518.71662636 260.8289296 -518.71059647 259.77895294 -518.70438385 258.69715881 C-518.62950092 243.52628061 -518.98856067 228.44700499 -520.05960083 213.31256104 C-520.55570552 206.19409818 -520.89222152 199.11657203 -520.94189453 191.98144531 C-520.95169279 191.25056576 -520.96149105 190.5196862 -520.97158623 189.76665878 C-520.97069641 173.96584065 -514.33972429 159.24628495 -503.4765625 147.9609375 C-499.25354708 144.09238647 -494.83069346 141.16193719 -489.77734375 138.48828125 C-488.44316406 137.78058594 -488.44316406 137.78058594 -487.08203125 137.05859375 C-468.81098855 128.45746223 -447.38015656 130.01283191 -427.6809082 130.09716797 C-423.65254003 130.11424465 -419.62476706 130.10411662 -415.59641933 130.08684444 C-388.6799274 129.98886006 -362.85834 131.09983919 -338.5715332 143.8972168 C-334.12854394 146.16805374 -330.87246919 147.23213601 -325.77734375 146.48828125 C-322.69141868 145.19336085 -319.85303446 143.54663766 -316.96484375 141.86328125 C-286.25418661 124.86515006 -249.39366857 121.96428965 -215.7578125 131.34106445 C-211.09129773 132.69515056 -206.51813288 134.11958983 -202.078125 136.11328125 C-194.94506618 139.08468563 -189.21755033 137.83005011 -182.15234375 135.11328125 C-168.46718192 129.85884535 -153.57392613 130.11686596 -139.08984375 129.86328125 C-137.27766597 129.82731461 -135.46549151 129.79117959 -133.65332031 129.75488281 C-129.18220555 129.66875318 -124.71098284 129.59615236 -120.23956299 129.5279541 C-117.95887836 129.49120625 -115.67845247 129.44789069 -113.39794922 129.40136719 C-97.390638 129.08231923 -81.30850222 129.04372887 -65.67797852 133.02270508 C-59.5709699 134.51866724 -53.28554147 133.77607698 -47.34765625 131.98828125 C-40.09160948 130.09744742 -33.11091027 130.11749475 -25.65234375 130.23828125 C-23.68394531 130.24601562 -23.68394531 130.24601562 -21.67578125 130.25390625 C-12.08761161 130.33314732 -12.08761161 130.33314732 -9.77734375 131.48828125 C-9.78781738 130.88693359 -9.79829102 130.28558594 -9.80908203 129.66601562 C-9.98566666 117.83708053 -9.86290827 106.09731559 -8.90234375 94.30078125 C-8.82387207 93.29273437 -8.74540039 92.2846875 -8.66455078 91.24609375 C-8.58060059 90.30121094 -8.49665039 89.35632813 -8.41015625 88.3828125 C-8.33684082 87.55628174 -8.26352539 86.72975098 -8.18798828 85.87817383 C-7.52993422 82.04839307 -6.53980585 79.25074335 -3.77734375 76.48828125 C-0.78872781 75.48054648 2.03627245 75.33958199 5.17480469 75.28295898 C6.15551941 75.26301376 7.13623413 75.24306854 8.14666748 75.22251892 C9.19783752 75.20580643 10.24900757 75.18909393 11.33203125 75.171875 C12.41397766 75.1510939 13.49592407 75.13031281 14.61065674 75.10890198 C18.06459238 75.04355194 21.51860362 74.98458896 24.97265625 74.92578125 C27.31511196 74.88258221 29.65756005 74.83896747 32 74.79492188 C37.74080565 74.68788542 43.4816864 74.58609199 49.22265625 74.48828125 C40.91558317 65.43737538 32.41999383 56.61459962 23.67578125 47.984375 C22.76397095 47.0828067 21.85216064 46.1812384 20.91271973 45.25234985 C17.13773219 41.52255025 13.36128897 37.79434334 9.56933594 34.08178711 C6.76066078 31.3310396 3.96818159 28.56414456 1.17578125 25.796875 C0.31962219 24.96449814 -0.53653687 24.13212128 -1.41864014 23.27452087 C-5.76567162 18.94685779 -9.07483032 15.45030621 -10.77734375 9.48828125 C-10.15234375 5.67578125 -10.15234375 5.67578125 -8.77734375 2.48828125 C-5.65897386 0.40936799 -3.72949738 -0.12860336 0 0 Z " fill="#FDFDFD" transform="translate(522.77734375,1.51171875)"/>
<path d="M0 0 C4.64121178 1.01959837 7.79531845 4.36489695 11.22265625 7.48828125 C11.73022461 7.94912109 12.23779297 8.40996094 12.76074219 8.88476562 C15.58138214 11.45203459 18.38138745 14.04035621 21.16796875 16.64453125 C25.78252701 20.95332243 30.55149864 25.07021146 35.36328125 29.15625 C41.31925276 34.22283429 47.19323454 39.33998766 52.91015625 44.67578125 C53.9863956 45.66339672 55.06320919 46.65038684 56.140625 47.63671875 C58.15136962 49.47901419 60.08864456 51.35064618 62.0234375 53.27734375 C63.35955078 54.52644531 63.35955078 54.52644531 64.72265625 55.80078125 C65.47546875 56.53941406 66.22828125 57.27804688 67.00390625 58.0390625 C72.43287956 60.4834182 77.58524678 60.31264404 83.22265625 58.48828125 C86.41392805 55.42745836 87.95754145 51.87566442 89.72265625 47.86328125 C90.79135542 45.67435545 91.86305507 43.48689244 92.9375 41.30078125 C93.73969971 39.61275391 93.73969971 39.61275391 94.55810547 37.890625 C97.23606822 32.416866 100.25660379 27.14865468 103.28515625 21.86328125 C103.82140625 20.91114746 104.35765625 19.95901367 104.91015625 18.97802734 C112.11775986 6.22487884 112.11775986 6.22487884 116.22265625 3.48828125 C120.10741816 3.06448904 122.32442406 2.87370133 125.59765625 5.11328125 C127.68582503 8.16522024 128.15365009 9.76194881 128.22265625 13.48828125 C126.6299351 20.37959721 123.94083881 26.804003 121.02734375 33.22265625 C120.22134348 35.03124524 119.41535422 36.83983913 118.609375 38.6484375 C117.3493578 41.45575779 116.08697661 44.26200241 114.82373047 47.06787109 C113.5942015 49.80444177 112.37301565 52.544626 111.15234375 55.28515625 C110.77318817 56.11964294 110.39403259 56.95412964 110.00338745 57.81390381 C108.14386219 61.99378973 106.4522461 65.85316544 106.22265625 70.48828125 C107.80822992 73.62568455 107.80822992 73.62568455 110.06196594 73.87355042 C110.80633408 73.87862106 111.55070221 73.88369171 112.31762695 73.88891602 C113.16222977 73.90225479 114.00683258 73.91559357 114.87702942 73.92933655 C115.79159409 73.92945236 116.70615875 73.92956818 117.6484375 73.9296875 C118.58817917 73.94289536 119.52792084 73.95610321 120.49613953 73.9697113 C123.50917471 74.01071444 126.5219047 74.03229799 129.53515625 74.05078125 C132.53760167 74.07458537 135.53976008 74.10277422 138.54203796 74.14256287 C140.4117384 74.16686337 142.28159032 74.18176786 144.15144348 74.18617249 C152.30569111 74.28343058 152.30569111 74.28343058 156.22265625 76.48828125 C165.3816514 88.4339058 163.34944892 115.06089441 163.22265625 129.48828125 C164.49157715 129.46471558 164.49157715 129.46471558 165.78613281 129.44067383 C168.98435109 129.3889418 172.18235316 129.35164219 175.38085938 129.32348633 C176.75397851 129.30858202 178.12705164 129.28825128 179.5 129.26196289 C189.90083835 129.06808761 199.32109989 129.74100501 208.84765625 134.17578125 C216.87090483 137.29593348 223.44527679 135.31885171 231.32641602 132.48730469 C261.94292943 121.60861391 295.43277438 125.09976364 325.22265625 136.48828125 C325.88265625 136.81828125 326.54265625 137.14828125 327.22265625 137.48828125 C334.32650545 138.18702052 339.21066937 136.61995368 345.71875 133.77734375 C354.10701386 130.69136039 362.39261701 130.17096284 371.265625 130.15234375 C372.3922908 130.14568695 373.5189566 130.13903015 374.67976379 130.13217163 C377.05219911 130.1220989 379.42466246 130.11735293 381.79711914 130.11767578 C385.38281171 130.11331451 388.96725983 130.07696756 392.55273438 130.0390625 C410.01179554 129.9523061 423.82568545 131.58433906 439.22265625 140.48828125 C439.55265625 140.81828125 439.88265625 141.14828125 440.22265625 141.48828125 C444.35913694 141.9139911 446.39855422 141.05331884 449.78515625 138.73828125 C460.96851502 131.66718894 472.45017896 130.33373903 485.3828125 130.28515625 C486.56427353 130.27945618 487.74573456 130.2737561 488.96299744 130.2678833 C491.46189484 130.25845121 493.96080458 130.25190645 496.4597168 130.24804688 C500.24745951 130.23837748 504.03465094 130.20735087 507.82226562 130.17578125 C510.25911139 130.16924673 512.695961 130.16399802 515.1328125 130.16015625 C516.80852074 130.14163605 516.80852074 130.14163605 518.51808167 130.1227417 C527.63878817 130.14806767 536.51418559 131.29640698 544.84765625 135.17578125 C553.19775939 138.42304358 561.18252375 136.26867615 569.22265625 133.17578125 C602.75171037 121.29270755 639.3084736 124.70828281 671.3359375 139.54296875 C682.00754375 144.72852374 691.23020516 151.80999789 700.22265625 159.48828125 C700.83238281 159.95234375 701.44210937 160.41640625 702.0703125 160.89453125 C722.10122674 176.42677681 735.00500128 205.32202544 740.22265625 229.48828125 C740.38491699 230.23513184 740.54717773 230.98198242 740.71435547 231.75146484 C747.88484378 266.30152667 741.8810188 304.19205756 722.9609375 334.1796875 C718.15372581 341.28563567 712.84891756 348.01450689 707.22265625 354.48828125 C706.64644531 355.16117187 706.07023437 355.8340625 705.4765625 356.52734375 C684.8520023 378.85147796 651.56676237 392.19605978 621.55175781 393.61450195 C599.73640735 394.19080482 579.95931564 391.88099702 559.66015625 383.67578125 C553.35709898 381.49836146 549.43470146 382.30187841 543.41015625 384.80078125 C527.57701481 391.1610328 510.60251254 391.00512744 493.78515625 391.17578125 C491.49982575 391.20801746 489.21450662 391.24106839 486.92919922 391.27490234 C480.36049581 391.36677476 473.79173296 391.43041646 467.22265625 391.48828125 C465.58349452 391.50489109 463.9443342 391.5216405 462.30517578 391.53857422 C443.12854541 391.72364876 423.95846182 391.39373566 404.78515625 391.05078125 C403.66030823 391.03122375 402.53546021 391.01166626 401.37652588 390.99151611 C390.30745942 390.79429218 379.24039831 390.55478274 368.1796875 390.0703125 C367.39839981 390.04054825 366.61711212 390.010784 365.81214905 389.9801178 C355.69494714 389.48581973 346.27891741 387.02906024 337.22265625 382.48828125 C330.28001823 381.48047896 325.1564793 383.49927123 318.80908203 386.06103516 C313.36838652 388.20029497 307.94705727 389.63097818 302.22265625 390.80078125 C301.44615723 390.9596582 300.6696582 391.11853516 299.86962891 391.28222656 C266.50902789 397.806651 230.46237146 392.49063992 201.51953125 374.22265625 C194.41408278 369.40711535 187.7666006 364.03555271 181.22265625 358.48828125 C177.87603996 361.71869558 175.00656404 365.01915443 172.22265625 368.73828125 C160.33309341 383.36855592 143.4618555 389.39090608 125.22265625 391.48828125 C116.23773202 392.39235437 107.23911306 393.00456882 98.22265625 393.48828125 C97.36559082 393.53645996 96.50852539 393.58463867 95.62548828 393.63427734 C85.23620111 394.15583232 77.17908396 392.69558848 67.97265625 387.73828125 C62.50425832 385.25264583 56.94543634 386.59507423 51.28515625 387.92578125 C43.42292421 389.76059752 35.88532965 390.64388576 27.83984375 390.65625 C27.0631131 390.6595784 26.28638245 390.6629068 25.4861145 390.66633606 C23.850775 390.67136702 22.21542536 390.67374558 20.58007812 390.67358398 C18.12482001 390.67575721 15.6700219 390.69391745 13.21484375 390.71289062 C4.74170616 390.74231161 -3.3398191 390.38717889 -11.70703125 388.94360352 C-19.91471893 387.72641701 -27.98757412 388.30736369 -36.16015625 389.48828125 C-44.00093391 390.53679471 -51.72832147 390.79583241 -59.63183594 390.74902344 C-61.77697988 390.73828307 -63.92128694 390.74901417 -66.06640625 390.76171875 C-74.58281499 390.76924331 -82.81544786 390.15191799 -91.24633789 388.94140625 C-98.75386304 387.97798464 -106.01041722 388.19877312 -113.50198364 389.20904541 C-122.42034635 390.4040462 -131.19781119 390.80069954 -140.18945312 390.74902344 C-142.40912949 390.73824831 -144.62800312 390.74903502 -146.84765625 390.76171875 C-160.49034881 390.7760239 -176.64793401 390.70847316 -188.609375 383.36328125 C-193.95379738 381.20625312 -199.10531648 382.28297843 -204.25585938 384.41918945 C-204.88169922 384.68948975 -205.50753906 384.95979004 -206.15234375 385.23828125 C-212.10779033 387.64079486 -218.00066512 389.43907 -224.27734375 390.80078125 C-225.00614746 390.9596582 -225.73495117 391.11853516 -226.48583984 391.28222656 C-260.76143745 398.41481148 -296.47999777 391.70396573 -326.16015625 373.40234375 C-335.28081577 367.31457824 -344.01766896 360.24795604 -351.77734375 352.48828125 C-356.34067429 352.13234147 -359.9997433 353.02172098 -363.90234375 355.36328125 C-367.30278584 358.59417221 -369.59186472 362.66479982 -371.96875 366.671875 C-375.64209097 372.39213168 -379.64315644 376.52771756 -385.40234375 380.11328125 C-386.01625977 380.50008057 -386.63017578 380.88687988 -387.26269531 381.28540039 C-399.87801136 389.00876267 -412.82552037 390.83460626 -427.40234375 390.67578125 C-428.66691406 390.66716064 -429.93148437 390.65854004 -431.234375 390.6496582 C-435.08252785 390.61371445 -438.92962994 390.55615273 -442.77734375 390.48828125 C-443.92428711 390.46894531 -445.07123047 390.44960938 -446.25292969 390.4296875 C-467.45213366 390.00281576 -485.68856503 387.7088628 -501.77734375 372.48828125 C-517.48696542 355.89516592 -519.39869619 335.48310398 -519.09765625 313.75390625 C-519.08505617 311.66584409 -519.07459598 309.57776807 -519.06613159 307.48968506 C-519.03971416 302.01254812 -518.99104324 296.53587003 -518.9354248 291.05895996 C-518.83852797 281.33244892 -518.77229235 271.60576432 -518.72265625 261.87890625 C-518.71662636 260.8289296 -518.71059647 259.77895294 -518.70438385 258.69715881 C-518.62950092 243.52628061 -518.98856067 228.44700499 -520.05960083 213.31256104 C-520.55570552 206.19409818 -520.89222152 199.11657203 -520.94189453 191.98144531 C-520.95169279 191.25056576 -520.96149105 190.5196862 -520.97158623 189.76665878 C-520.97069641 173.96584065 -514.33972429 159.24628495 -503.4765625 147.9609375 C-499.25354708 144.09238647 -494.83069346 141.16193719 -489.77734375 138.48828125 C-488.44316406 137.78058594 -488.44316406 137.78058594 -487.08203125 137.05859375 C-468.81098855 128.45746223 -447.38015656 130.01283191 -427.6809082 130.09716797 C-423.65254003 130.11424465 -419.62476706 130.10411662 -415.59641933 130.08684444 C-388.6799274 129.98886006 -362.85834 131.09983919 -338.5715332 143.8972168 C-334.12854394 146.16805374 -330.87246919 147.23213601 -325.77734375 146.48828125 C-322.69141868 145.19336085 -319.85303446 143.54663766 -316.96484375 141.86328125 C-286.25418661 124.86515006 -249.39366857 121.96428965 -215.7578125 131.34106445 C-211.09129773 132.69515056 -206.51813288 134.11958983 -202.078125 136.11328125 C-194.94506618 139.08468563 -189.21755033 137.83005011 -182.15234375 135.11328125 C-168.46718192 129.85884535 -153.57392613 130.11686596 -139.08984375 129.86328125 C-137.27766597 129.82731461 -135.46549151 129.79117959 -133.65332031 129.75488281 C-129.18220555 129.66875318 -124.71098284 129.59615236 -120.23956299 129.5279541 C-117.95887836 129.49120625 -115.67845247 129.44789069 -113.39794922 129.40136719 C-97.390638 129.08231923 -81.30850222 129.04372887 -65.67797852 133.02270508 C-59.5709699 134.51866724 -53.28554147 133.77607698 -47.34765625 131.98828125 C-40.09160948 130.09744742 -33.11091027 130.11749475 -25.65234375 130.23828125 C-23.68394531 130.24601562 -23.68394531 130.24601562 -21.67578125 130.25390625 C-12.08761161 130.33314732 -12.08761161 130.33314732 -9.77734375 131.48828125 C-9.78781738 130.88693359 -9.79829102 130.28558594 -9.80908203 129.66601562 C-9.98566666 117.83708053 -9.86290827 106.09731559 -8.90234375 94.30078125 C-8.82387207 93.29273437 -8.74540039 92.2846875 -8.66455078 91.24609375 C-8.58060059 90.30121094 -8.49665039 89.35632813 -8.41015625 88.3828125 C-8.33684082 87.55628174 -8.26352539 86.72975098 -8.18798828 85.87817383 C-7.52993422 82.04839307 -6.53980585 79.25074335 -3.77734375 76.48828125 C-0.78872781 75.48054648 2.03627245 75.33958199 5.17480469 75.28295898 C6.15551941 75.26301376 7.13623413 75.24306854 8.14666748 75.22251892 C9.19783752 75.20580643 10.24900757 75.18909393 11.33203125 75.171875 C12.41397766 75.1510939 13.49592407 75.13031281 14.61065674 75.10890198 C18.06459238 75.04355194 21.51860362 74.98458896 24.97265625 74.92578125 C27.31511196 74.88258221 29.65756005 74.83896747 32 74.79492188 C37.74080565 74.68788542 43.4816864 74.58609199 49.22265625 74.48828125 C40.91558317 65.43737538 32.41999383 56.61459962 23.67578125 47.984375 C22.76397095 47.0828067 21.85216064 46.1812384 20.91271973 45.25234985 C17.13773219 41.52255025 13.36128897 37.79434334 9.56933594 34.08178711 C6.76066078 31.3310396 3.96818159 28.56414456 1.17578125 25.796875 C0.31962219 24.96449814 -0.53653687 24.13212128 -1.41864014 23.27452087 C-5.76567162 18.94685779 -9.07483032 15.45030621 -10.77734375 9.48828125 C-10.15234375 5.67578125 -10.15234375 5.67578125 -8.77734375 2.48828125 C-5.65897386 0.40936799 -3.72949738 -0.12860336 0 0 Z M-330.65625 158.984375 C-332.77734375 160.48828125 -332.77734375 160.48828125 -336.77734375 160.48828125 C-339.01112504 159.17771857 -341.09417541 157.83573206 -343.21484375 156.36328125 C-359.75354874 145.39910662 -378.51258353 139.43293968 -398.40820312 139.32714844 C-399.48331146 139.31970108 -399.48331146 139.31970108 -400.58013916 139.31210327 C-402.92713421 139.29762495 -405.27406157 139.29070175 -407.62109375 139.28515625 C-408.43226151 139.28232887 -409.24342926 139.2795015 -410.07917786 139.27658844 C-414.37700722 139.26164969 -418.67480352 139.25238824 -422.97265625 139.24804688 C-427.36531823 139.24258789 -431.75766624 139.21859923 -436.15023041 139.19007492 C-439.5684898 139.17125287 -442.98667673 139.16623255 -446.40498352 139.164711 C-448.02177129 139.16172489 -449.63855907 139.15383729 -451.2552948 139.14052582 C-469.25675767 139.00295554 -486.17423773 140.67727812 -499.99609375 153.5078125 C-508.59392049 163.06723828 -512.15291156 174.61693848 -511.55859375 187.26367188 C-511.50703125 188.22466797 -511.45546875 189.18566406 -511.40234375 190.17578125 C-511.35851562 191.08650391 -511.3146875 191.99722656 -511.26953125 192.93554688 C-511.05032383 197.42016543 -510.81447736 201.90244869 -510.53044128 206.38349915 C-509.76037996 218.89230434 -509.62856051 231.37292951 -509.60867882 243.90287781 C-509.60138594 247.54521069 -509.58563465 251.18741844 -509.56733704 254.82971191 C-509.5154146 265.16998754 -509.46683651 275.51018223 -509.45141602 285.85058594 C-509.44131297 292.21390643 -509.41195515 298.57689119 -509.37009621 304.94007874 C-509.35784221 307.34804239 -509.35265462 309.75605345 -509.35489464 312.16404724 C-509.3572588 315.5296511 -509.33500409 318.89429241 -509.30737305 322.25976562 C-509.31397446 323.23765045 -509.32057587 324.21553528 -509.32737732 325.22305298 C-509.16845532 337.07814649 -504.59916674 347.24695959 -496.5546875 355.87109375 C-483.15655893 368.73839313 -469.29793594 368.98876497 -451.77734375 369.48828125 C-450.77323456 369.51852386 -450.77323456 369.51852386 -449.74884033 369.54937744 C-445.31690211 369.67970234 -440.88595701 369.77288356 -436.45245361 369.82931519 C-434.98008424 369.85166519 -433.50781611 369.88261999 -432.03582764 369.92288208 C-419.76400318 370.24333775 -408.74223388 368.26575647 -398.77734375 360.48828125 C-397.80796875 359.80765625 -396.83859375 359.12703125 -395.83984375 358.42578125 C-388.9724182 352.55232518 -385.15166929 344.00791996 -382.77734375 335.48828125 C-381.80861328 335.39353516 -381.80861328 335.39353516 -380.8203125 335.296875 C-370.58327266 333.96647995 -361.3361861 330.24633021 -351.77734375 326.48828125 C-351.48400146 327.1023584 -351.19065918 327.71643555 -350.88842773 328.34912109 C-340.97122863 347.44261672 -316.47148382 361.00030737 -296.77734375 367.48828125 C-265.48344079 377.11363183 -233.07913711 373.4629827 -203.77734375 359.48828125 C-202.29234375 358.49828125 -202.29234375 358.49828125 -200.77734375 357.48828125 C-197.11124932 357.81108202 -194.56739366 359.82668867 -191.58984375 361.86328125 C-181.96337949 368.12690066 -172.71780238 369.64796693 -161.390625 369.62109375 C-160.49296921 369.62205048 -159.59531342 369.6230072 -158.67045593 369.62399292 C-156.77517629 369.62467144 -154.87989428 369.62284009 -152.98461914 369.61865234 C-150.11664459 369.61333098 -147.24882889 369.61859223 -144.38085938 369.625 C-128.62319741 370.19439146 -128.62319741 370.19439146 -113.46484375 366.86328125 C-108.68903054 365.08246954 -105.74279296 365.98112247 -100.90673828 367.22900391 C-90.78671618 369.81718412 -80.97583716 369.94739948 -70.58154297 369.87939453 C-67.65024567 369.86326971 -64.72031892 369.87934296 -61.7890625 369.8984375 C-50.57829462 369.91049234 -40.68800056 369.22871412 -30.15234375 365.05078125 C-25.77836909 364.32178547 -23.32640264 365.55427754 -19.40234375 367.4453125 C-13.48215101 369.79753194 -7.1161938 369.64745797 -0.8359375 369.65625 C0.4311631 369.6612426 0.4311631 369.6612426 1.72386169 369.66633606 C3.50641337 369.67137723 5.2889744 369.67374526 7.0715332 369.67358398 C9.7529322 369.67575516 12.4339088 369.69389862 15.11523438 369.71289062 C33.17851874 369.95905761 33.17851874 369.95905761 50.22265625 364.73828125 C54.88805837 362.43948573 54.88805837 362.43948573 58.22265625 362.92578125 C59.21265625 363.44140625 60.20265625 363.95703125 61.22265625 364.48828125 C63.1318547 365.21650409 65.04934891 365.92318263 66.97265625 366.61328125 C67.91625 366.96648437 68.85984375 367.3196875 69.83203125 367.68359375 C72.11816936 368.59461922 72.11816936 368.59461922 74.22265625 368.48828125 C74.22265625 370.13828125 74.22265625 371.78828125 74.22265625 373.48828125 C84.55896903 372.86354249 94.89180591 372.19726118 105.22265625 371.48828125 C106.87394531 371.37613281 106.87394531 371.37613281 108.55859375 371.26171875 C125.45653538 370.06422682 140.70216587 367.56259807 153.03515625 354.86328125 C162.71683126 343.41974666 164.81553412 329.07966437 164.22265625 314.48828125 C165.21265625 314.48828125 166.20265625 314.48828125 167.22265625 314.48828125 C167.60550781 315.80699219 167.60550781 315.80699219 167.99609375 317.15234375 C175.7301671 338.1870528 200.09757595 354.69588693 219.58764648 363.78735352 C246.32698619 375.51332346 279.7672209 376.33761776 307.12255859 366.32568359 C311.73598417 364.48610562 316.20974737 362.32010616 320.64038086 360.07958984 C324.17055644 358.31556064 326.19659472 357.48828125 330.22265625 357.48828125 C332.4140625 358.87890625 332.4140625 358.87890625 334.78515625 360.73828125 C346.09539893 368.97907754 357.76005803 369.61860371 371.28125 369.8046875 C372.56272919 369.82555923 373.84420837 369.84643097 375.16452026 369.86793518 C378.61701766 369.92358933 382.06957523 369.97316306 385.52219009 370.02091217 C387.66213988 370.05080896 389.80206364 370.08216284 391.94198608 370.11395264 C409.47232794 370.37319924 427.00270132 370.58731869 444.53515625 370.61328125 C445.33815155 370.61586945 446.14114685 370.61845764 446.96847534 370.62112427 C456.50913634 370.69825406 456.50913634 370.69825406 466.01171875 369.97265625 C470.87302179 369.39676701 475.6835464 369.44655738 480.5703125 369.49609375 C481.43205582 369.50395905 482.29379913 369.51182434 483.18165588 369.51992798 C486.77878521 369.55631319 490.37562591 369.59758117 493.97241211 369.65966797 C503.30711542 369.81159054 512.41155302 369.77108553 521.6328125 368.16796875 C522.30949478 368.0507547 522.98617706 367.93354065 523.68336487 367.81277466 C530.14772015 366.543782 537.33676412 363.90859785 541.69921875 358.73828125 C543.22265625 357.48828125 543.22265625 357.48828125 545.43359375 357.56640625 C548.34373235 358.5283008 551.01279917 359.77914157 553.7421875 361.16772461 C560.72607028 364.71878282 567.63380039 367.4581327 575.22265625 369.42578125 C575.98658691 369.62461914 576.75051758 369.82345703 577.53759766 370.02832031 C607.9763777 377.47434819 640.15857405 371.51764363 667.22265625 356.48828125 C671.53383185 353.86434195 675.40019573 350.77749796 679.22265625 347.48828125 C680.01446289 346.81756592 680.01446289 346.81756592 680.82226562 346.13330078 C701.70872507 328.30145542 718.07595385 301.96534038 721.03222656 274.20654297 C721.4717292 267.93292449 721.5129192 261.64970503 721.53515625 255.36328125 C721.54094193 254.34483627 721.54094193 254.34483627 721.54684448 253.30581665 C721.63724906 220.93755552 710.60929946 192.85336167 688.22265625 169.48828125 C687.17851562 168.34939453 687.17851562 168.34939453 686.11328125 167.1875 C674.1046325 154.49952987 658.14567898 145.43430078 641.59765625 140.11328125 C640.8588623 139.87456299 640.12006836 139.63584473 639.35888672 139.38989258 C628.41640128 136.089001 617.35839175 135.11886907 605.97265625 135.17578125 C604.79606445 135.1806958 603.61947266 135.18561035 602.40722656 135.19067383 C583.61527123 135.44200656 566.12005323 139.35719686 550.02734375 149.328125 C547.22265625 150.48828125 547.22265625 150.48828125 544.58203125 149.828125 C542.51981161 148.65703007 540.54717366 147.46162589 538.59765625 146.11328125 C529.46637613 140.3464962 520.76990913 138.88207308 510.1015625 138.95703125 C508.26983742 138.95129089 508.26983742 138.95129089 506.40110779 138.94543457 C503.83372161 138.9427279 501.26630727 138.95000109 498.69897461 138.96679688 C494.79933311 138.98820343 490.90153776 138.96695957 487.00195312 138.94140625 C484.49348557 138.9440501 481.98501915 138.94917627 479.4765625 138.95703125 C478.3262001 138.94893433 477.17583771 138.9408374 475.99061584 138.93249512 C460.95068696 139.10414421 451.09543085 144.4468813 440.66796875 154.77734375 C439.14530756 156.57984537 438.1876418 158.34282793 437.22265625 160.48828125 C436.54460938 159.69164062 435.8665625 158.895 435.16796875 158.07421875 C426.80275024 148.46224638 417.55548088 140.53036109 404.33721924 139.19728088 C401.06000565 139.07724254 397.79503555 139.0462488 394.515625 139.0546875 C393.31384109 139.04944565 392.11205719 139.0442038 390.87385559 139.0388031 C388.34161142 139.03240525 385.80933744 139.03369073 383.27709961 139.04223633 C379.43223296 139.05073247 375.58886038 139.02197232 371.74414062 138.99023438 C369.27213586 138.98862163 366.80012849 138.9892013 364.328125 138.9921875 C363.19336227 138.98095352 362.05859955 138.96971954 360.88945007 138.95814514 C349.01879538 139.06019551 339.70169364 142.44441058 330.22265625 149.48828125 C328.73765625 150.47828125 328.73765625 150.47828125 327.22265625 151.48828125 C326.24167969 150.96878906 325.26070312 150.44929687 324.25 149.9140625 C294.96192929 134.66596069 262.26127594 130.40911408 230.37817383 140.18408203 C222.70588996 142.66712996 215.45318942 145.94007695 208.22265625 149.48828125 C207.74957031 149.1015625 207.27648437 148.71484375 206.7890625 148.31640625 C190.30404411 135.33405259 172.10566423 136.65581397 152.22265625 138.48828125 C152.16730713 139.1838916 152.11195801 139.87950195 152.05493164 140.59619141 C151.8009877 143.76877303 151.54310804 146.94102308 151.28515625 150.11328125 C151.19814453 151.20769531 151.11113281 152.30210937 151.02148438 153.4296875 C150.93447266 154.49316406 150.84746094 155.55664062 150.7578125 156.65234375 C150.67926025 157.6263916 150.60070801 158.60043945 150.51977539 159.60400391 C150.22265625 162.48828125 150.22265625 162.48828125 149.69311523 165.45458984 C149.19864955 168.64308523 149.12433431 171.63930627 149.16015625 174.86328125 C149.17369141 176.45269531 149.17369141 176.45269531 149.1875 178.07421875 C149.19910156 178.87085938 149.21070313 179.6675 149.22265625 180.48828125 C150.12097168 180.4725708 151.01928711 180.45686035 151.94482422 180.44067383 C155.27333317 180.3895887 158.60142652 180.3519534 161.93017578 180.32348633 C163.37164883 180.30838642 164.81307584 180.28790467 166.25439453 180.26196289 C168.32465968 180.22562995 170.39431832 180.20856796 172.46484375 180.1953125 C173.71120605 180.17960205 174.95756836 180.1638916 176.24169922 180.14770508 C177.22541504 180.26009521 178.20913086 180.37248535 179.22265625 180.48828125 C181.81302083 184.37382812 181.60160286 187.78264131 181.72265625 192.30078125 C181.95354063 200.47001398 182.96882907 208.41348843 184.22265625 216.48828125 C183.1867334 216.39740234 182.15081055 216.30652344 181.08349609 216.21289062 C157.12457616 214.02839249 157.12457616 214.02839249 133.09765625 213.05078125 C131.79707275 213.01791016 131.79707275 213.01791016 130.47021484 212.984375 C126.9966764 212.99577533 124.66529954 213.20983331 121.6953125 215.078125 C119.70061408 218.34265796 119.72467927 220.68226341 119.78515625 224.48828125 C119.78644531 225.70515625 119.78773438 226.92203125 119.7890625 228.17578125 C120.2573815 231.75356968 120.73222097 232.95779973 123.22265625 235.48828125 C125.6139223 236.06661203 125.6139223 236.06661203 128.33666992 235.94238281 C129.37752243 235.94208069 130.41837494 235.94177856 131.49076843 235.94146729 C132.6127211 235.92082214 133.73467377 235.900177 134.890625 235.87890625 C136.04057449 235.87324646 137.19052399 235.86758667 138.37532043 235.86175537 C142.05401965 235.83933599 145.73175062 235.78912705 149.41015625 235.73828125 C151.90167866 235.71822355 154.39321631 235.69997151 156.88476562 235.68359375 C162.99772709 235.63945291 169.11012251 235.57248474 175.22265625 235.48828125 C176.05484488 239.39255674 176.35144605 242.96151594 176.35546875 246.9609375 C176.35675781 248.19005859 176.35804688 249.41917969 176.359375 250.68554688 C176.35550781 251.96107422 176.35164062 253.23660156 176.34765625 254.55078125 C176.35152344 255.83017578 176.35539063 257.10957031 176.359375 258.42773438 C176.35808594 259.65556641 176.35679687 260.88339844 176.35546875 262.1484375 C176.35377686 263.82885132 176.35377686 263.82885132 176.35205078 265.54321289 C176.24211769 268.04533146 175.9527803 270.10685875 175.22265625 272.48828125 C174.60076416 272.41899414 173.97887207 272.34970703 173.33813477 272.27832031 C163.88543918 271.35160162 154.45428352 271.26808213 144.96508789 271.24804688 C142.13464546 271.23819243 139.30488682 271.20700921 136.47460938 271.17578125 C134.67057717 271.16926312 132.86653986 271.16400801 131.0625 271.16015625 C130.21880356 271.14780945 129.37510712 271.13546265 128.50584412 271.1227417 C124.21206215 271.0067025 124.21206215 271.0067025 120.49855042 272.84451294 C118.56521758 275.33527694 118.89861741 277.3170214 118.97265625 280.43359375 C119.01326172 282.31159668 119.01326172 282.31159668 119.0546875 284.22753906 C119.10720435 285.64791911 119.16337587 287.0681674 119.22265625 288.48828125 C119.25407715 289.2500769 119.28549805 290.01187256 119.31787109 290.79675293 C119.57199368 296.65499436 119.89292505 302.50889268 120.22265625 308.36328125 C120.31935756 310.13018937 120.41571392 311.8971164 120.51171875 313.6640625 C120.7447322 317.93902998 120.98237573 322.21371632 121.22265625 326.48828125 C118.21225424 327.99348225 115.10278477 327.65110763 111.80078125 327.65625 C111.06317566 327.6595784 110.32557007 327.6629068 109.56561279 327.66633606 C108.00208154 327.67140335 106.43853946 327.67374445 104.875 327.67358398 C102.49590896 327.67575998 100.11728956 327.69388817 97.73828125 327.71289062 C96.2174495 327.71582679 94.69661555 327.71781009 93.17578125 327.71875 C92.46931458 327.72593552 91.7628479 327.73312103 91.03497314 327.74052429 C86.68889817 327.72067965 83.29217527 326.93807716 79.22265625 325.48828125 C79.22709747 324.33825119 79.2315387 323.18822113 79.2361145 322.00334167 C79.27723391 310.9918649 79.30690885 299.98040433 79.32628059 288.9688673 C79.33657552 283.31213795 79.35046146 277.65547211 79.37353516 271.9987793 C79.50770512 239.44155435 79.50770512 239.44155435 78.27734375 206.9140625 C78.23401035 206.17195211 78.19067696 205.42984173 78.14603043 204.66524315 C78.09674611 197.36292432 78.09674611 197.36292432 76.22265625 190.48828125 C72.59265625 190.48828125 68.96265625 190.48828125 65.22265625 190.48828125 C65.22265625 198.40828125 65.22265625 206.32828125 65.22265625 214.48828125 C52.84765625 214.48828125 52.84765625 214.48828125 48.3359375 214.26953125 C47.37880859 214.22441406 46.42167969 214.17929688 45.43554688 214.1328125 C44.47841797 214.08511719 43.52128906 214.03742188 42.53515625 213.98828125 C41.53548828 213.94058594 40.53582031 213.89289063 39.50585938 213.84375 C37.07800271 213.72758461 34.65028659 213.60906847 32.22265625 213.48828125 C32.19907555 221.98390961 32.18151581 230.47952342 32.17084408 238.97517681 C32.16571208 242.92364883 32.15880045 246.87209786 32.1472168 250.82055664 C32.09862434 267.8270267 32.15501513 284.79964623 32.87010193 301.79411316 C33.19980441 309.69680018 33.27567615 317.57894601 33.22265625 325.48828125 C29.90010074 327.149559 26.18331196 326.62989849 22.53125 326.62109375 C21.67080582 326.62205048 20.81036163 326.6230072 19.92384338 326.62399292 C18.10393196 326.6246739 16.2840181 326.62282534 14.46411133 326.61865234 C11.66807646 326.61329642 8.87220177 326.61860345 6.07617188 326.625 C4.31119756 326.62433933 2.54622335 326.6230584 0.78125 326.62109375 C-0.060392 326.62311798 -0.902034 326.62514221 -1.7691803 326.62722778 C-7.66238903 326.60323597 -7.66238903 326.60323597 -8.77734375 325.48828125 C-8.87779096 323.63891542 -8.90816077 321.78568436 -8.91015625 319.93359375 C-8.91144531 318.75925781 -8.91273438 317.58492187 -8.9140625 316.375 C-8.91019531 315.13363281 -8.90632813 313.89226562 -8.90234375 312.61328125 C-8.90621094 311.44152344 -8.91007812 310.26976562 -8.9140625 309.0625 C-8.90671476 302.23644556 -8.68771523 295.47128029 -8.27734375 288.66015625 C-7.63932415 277.76882909 -7.62627289 266.88667666 -7.64697266 255.97949219 C-7.65236979 252.59696035 -7.64697212 249.21455929 -7.640625 245.83203125 C-7.63774034 235.34400102 -7.6360022 224.92674666 -8.77734375 214.48828125 C-16.53750347 214.33022425 -24.17341948 214.82323428 -31.90234375 215.48828125 C-33.04960937 215.58367187 -34.196875 215.6790625 -35.37890625 215.77734375 C-38.17871424 216.01066108 -40.97815128 216.24771065 -43.77734375 216.48828125 C-43.50019531 215.50730469 -43.22304688 214.52632813 -42.9375 213.515625 C-40.65545453 205.12473547 -39.2805053 197.31532595 -38.953125 188.59765625 C-38.80889777 186.04643677 -38.51709361 183.91802876 -37.77734375 181.48828125 C-36.69839844 181.56046875 -35.61945313 181.63265625 -34.5078125 181.70703125 C-23.25007867 182.41808604 -12.05546576 182.6008124 -0.77734375 182.48828125 C-1.4604839 168.42501668 -3.15795514 154.46864749 -4.77734375 140.48828125 C-32.44800495 136.54546955 -32.44800495 136.54546955 -58.375 144.1953125 C-60.77734375 145.48828125 -60.77734375 145.48828125 -62.9609375 145.23046875 C-64.07662109 144.80121094 -64.07662109 144.80121094 -65.21484375 144.36328125 C-69.41334786 142.90729776 -73.55457999 141.79527777 -77.90234375 140.86328125 C-79.57683594 140.50363281 -79.57683594 140.50363281 -81.28515625 140.13671875 C-88.54245867 138.78916595 -95.49189149 138.3392828 -102.85546875 138.35546875 C-103.8123912 138.35405884 -104.76931366 138.35264893 -105.75523376 138.35119629 C-108.8459754 138.34907174 -111.93661261 138.35533124 -115.02734375 138.36328125 C-116.0790274 138.36483215 -117.13071106 138.36638306 -118.21426392 138.36798096 C-130.80098057 138.3898206 -143.38399727 138.45453645 -155.96484375 138.86328125 C-157.54217285 138.9094458 -157.54217285 138.9094458 -159.15136719 138.95654297 C-172.62998376 139.48853553 -185.62587021 141.11534885 -195.890625 150.51171875 C-197.77734375 151.48828125 -197.77734375 151.48828125 -200.03125 150.890625 C-200.93746094 150.42785156 -201.84367187 149.96507812 -202.77734375 149.48828125 C-203.94523437 148.90433594 -205.113125 148.32039062 -206.31640625 147.71875 C-206.97012207 147.3894751 -207.62383789 147.0602002 -208.29736328 146.72094727 C-245.88639641 128.05722066 -298.35744842 130.28038101 -330.65625 158.984375 Z " fill="#010101" transform="translate(522.77734375,1.51171875)"/>
<path d="M0 0 C1.35219312 1.14475441 2.68654148 2.31100227 4 3.5 C4.99 4.35271484 4.99 4.35271484 6 5.22265625 C20.69851216 18.74413912 28.4221396 38.40676363 29.25 58.1015625 C29.76952993 81.0258206 22.86926995 101.57612666 7 118.5 C-9.90969233 134.83559783 -29.30888645 138.97140893 -52.09375 138.70703125 C-68.73621352 138.28103854 -82.71302483 131.58194783 -95 120.5 C-95.68449219 119.90832031 -96.36898438 119.31664062 -97.07421875 118.70703125 C-107.17380492 109.40112572 -113.21874106 97.52939826 -117 84.5 C-117.36609375 83.3140625 -117.7321875 82.128125 -118.109375 80.90625 C-119.51028031 75.14122461 -119.34064448 69.27473582 -119.3125 63.375 C-119.30758545 62.17101562 -119.3026709 60.96703125 -119.29760742 59.7265625 C-119.02141718 38.78709288 -111.95780385 21.27682951 -97.4921875 5.91015625 C-90.70668523 -0.65199877 -83.47252754 -5.60746145 -74.875 -9.4375 C-74.24263428 -9.72004639 -73.61026855 -10.00259277 -72.95874023 -10.29370117 C-49.25034791 -20.20690381 -20.22530367 -15.17768055 0 0 Z " fill="#010101" transform="translate(1174,193.5)"/>
<path d="M0 0 C2.50102937 2.18405193 4.83511887 4.45477464 7.15234375 6.83203125 C8.28736328 7.91871094 8.28736328 7.91871094 9.4453125 9.02734375 C25.01287361 24.83605469 29.41099865 44.78877893 29.40112305 66.23266602 C29.13131864 87.30264309 20.01421972 106.14126241 5.15234375 120.83203125 C-11.27280405 135.9874719 -30.45770666 139.86049077 -52.15625 139.2109375 C-71.31159318 138.20176253 -87.37045622 128.86819886 -100.47265625 115.20703125 C-117.03810925 96.03676321 -120.20285335 73.44691501 -118.84765625 48.83203125 C-116.75964406 29.98667534 -105.21257165 12.68254626 -91.16015625 0.51953125 C-64.50552413 -19.45028837 -26.73661349 -20.35503496 0 0 Z " fill="#010101" transform="translate(307.84765625,193.16796875)"/>
<path d="M0 0 C1.45019531 0.49306641 1.45019531 0.49306641 2.9296875 0.99609375 C20.71303469 7.67062276 33.91951255 20.55294651 43 37 C45.07253877 41.57932375 46.62904377 46.16821523 48 51 C48.31710937 52.04542969 48.63421875 53.09085938 48.9609375 54.16796875 C54.54376516 74.78345622 50.35019405 97.73869466 39.87890625 116.109375 C29.21194772 132.52008042 14.13932631 144.11617191 -5 149 C-26.19915031 152.87887884 -47.41316027 150.23865052 -65.52734375 138.33984375 C-67.79328462 136.6553218 -69.89934752 134.88637827 -72 133 C-72.82113281 132.27167969 -73.64226563 131.54335938 -74.48828125 130.79296875 C-87.23275301 118.82206128 -96.31139398 101.73690539 -97.13696289 84.06884766 C-97.88277277 59.40859909 -95.13389063 38.97697846 -78 20 C-77.43539062 19.36578125 -76.87078125 18.7315625 -76.2890625 18.078125 C-57.65915821 -1.6888157 -25.6630063 -9.24017865 0 0 Z " fill="#010101" transform="translate(813,182)"/>
<path d="M0 0 C6.34225175 -0.11199204 12.68402599 -0.18838428 19.02709961 -0.234375 C21.18931599 -0.25246566 23.35148871 -0.27711239 25.5135498 -0.30871582 C46.00814396 -0.59011428 64.52861191 0.99285165 80.04864502 15.80853271 C88.20365477 24.15251774 91.40933586 33.77208349 91.67755127 45.48822021 C91.25283151 59.20666832 88.23617744 70.57955354 79.24005127 81.05072021 C77.52991855 82.53542635 75.77897095 83.97445362 73.99005127 85.36322021 C73.09802002 86.06060303 72.20598877 86.75798584 71.28692627 87.47650146 C70.61145752 87.99599365 69.93598877 88.51548584 69.24005127 89.05072021 C69.85617247 93.12832236 71.193811 96.27127408 73.08380127 99.92572021 C73.66702148 101.06654053 74.2502417 102.20736084 74.85113525 103.38275146 C75.15993622 103.98168213 75.46873718 104.58061279 75.78689575 105.19769287 C80.67351218 114.69775208 85.41063145 124.25364773 89.67755127 134.05072021 C90.06040283 134.90923584 90.44325439 135.76775146 90.83770752 136.65228271 C91.17544189 137.44376709 91.51317627 138.23525146 91.86114502 139.05072021 C92.15432617 139.73134521 92.44750732 140.41197021 92.74957275 141.11322021 C93.33778428 143.43678748 92.88244989 144.77615955 92.24005127 147.05072021 C86.59837158 147.07542275 80.95672332 147.09358142 75.31500244 147.10565186 C73.39540051 147.11068336 71.47580241 147.11750919 69.55621338 147.12615967 C66.79847263 147.13827691 64.04078251 147.14396032 61.28302002 147.14837646 C59.99381905 147.15611839 59.99381905 147.15611839 58.67857361 147.16401672 C57.87797012 147.16409225 57.07736664 147.16416779 56.25250244 147.16424561 C55.19660164 147.16757652 55.19660164 147.16757652 54.11936951 147.17097473 C52.24005127 147.05072021 52.24005127 147.05072021 49.24005127 146.05072021 C47.90899658 143.43719482 47.90899658 143.43719482 46.56817627 139.95306396 C46.20318024 139.02008232 46.20318024 139.02008232 45.83081055 138.06825256 C45.3105771 136.73545209 44.7952956 135.40071019 44.28448486 134.06427002 C43.22692408 131.30060433 42.14246849 128.54779091 41.05926514 125.7940979 C40.26475956 123.77304492 39.47386555 121.75060641 38.68341064 119.72796631 C36.91808937 115.23045801 35.12410386 110.74977582 33.24005127 106.30072021 C32.49755127 104.51407959 32.49755127 104.51407959 31.74005127 102.69134521 C30.01611578 99.65650044 29.44797661 99.22355239 26.24005127 98.05072021 C23.63157207 97.75657256 21.10471816 97.54434404 18.49005127 97.42572021 C17.79266846 97.38704834 17.09528564 97.34837646 16.37677002 97.30853271 C14.66494309 97.21473398 12.95253445 97.13165847 11.24005127 97.05072021 C11.30063721 97.99689209 11.36122314 98.94306396 11.42364502 99.91790771 C11.65235648 103.51102457 11.8743408 107.10453367 12.09454346 110.69818115 C12.1897837 112.23800488 12.28672239 113.77772472 12.38555908 115.31732178 C13.06409927 125.91085736 13.37020903 136.43563145 13.24005127 147.05072021 C7.29523946 147.1000642 1.35054618 147.13641303 -4.59442139 147.1605835 C-6.61788 147.17065692 -8.64132401 147.18431617 -10.66473389 147.20159912 C-13.56890462 147.22578869 -16.47288334 147.2371897 -19.37713623 147.24603271 C-20.73970047 147.26151657 -20.73970047 147.26151657 -22.12979126 147.27731323 C-22.97051178 147.27746429 -23.8112323 147.27761536 -24.6774292 147.277771 C-25.7899556 147.28443283 -25.7899556 147.28443283 -26.92495728 147.29122925 C-28.75994873 147.05072021 -28.75994873 147.05072021 -30.75994873 145.05072021 C-30.93954602 142.11932717 -30.99312376 139.29348792 -30.94744873 136.36322021 C-30.93837494 135.49988571 -30.92930115 134.63655121 -30.91995239 133.74705505 C-30.84801049 128.47427672 -30.68724514 123.22214736 -30.39407349 117.9573822 C-29.4745528 100.88404006 -29.60786964 83.78951338 -29.62957764 66.69744873 C-29.63529521 62.13850253 -29.63196778 57.57961499 -29.62600517 53.02067089 C-29.6223529 49.44366532 -29.62355895 45.86667315 -29.62613297 42.28966713 C-29.62678828 40.61035467 -29.62602424 38.93104088 -29.62365341 37.25172997 C-29.62104582 34.8893591 -29.6239405 32.52709617 -29.6305542 30.16473389 C-29.63205915 29.41584491 -29.63356411 28.66695593 -29.63511467 27.89537334 C-29.66494919 23.90190885 -29.81134846 19.94140467 -30.09692383 15.95761108 C-30.155179 15.12847608 -30.21343418 14.29934107 -30.27345467 13.44508076 C-30.39249693 11.854252 -30.52561527 10.26439657 -30.67465019 8.67609692 C-30.83883667 6.52723694 -30.83883667 6.52723694 -30.75994873 3.05072021 C-27.76719441 1.05555067 -27.08738289 0.78361694 -23.72088623 0.63665771 C-22.85455566 0.59758301 -21.9882251 0.5585083 -21.09564209 0.51824951 C-19.63009888 0.47244751 -19.63009888 0.47244751 -18.13494873 0.42572021 C-17.08895508 0.39067383 -16.04296143 0.35562744 -14.965271 0.31951904 C-9.9773811 0.17796757 -4.98896415 0.09168335 0 0 Z " fill="#010101" transform="translate(382.75994873046875,181.94927978515625)"/>
<path d="M0 0 C0.70771545 -0.0065712 1.41543091 -0.0131424 2.14459229 -0.01991272 C4.49654247 -0.03968088 6.84842819 -0.05132573 9.20043945 -0.0612793 C10.00732523 -0.06535482 10.81421101 -0.06943035 11.64554787 -0.07362938 C15.92922332 -0.09452057 20.21286661 -0.10880024 24.49658203 -0.11816406 C28.88512743 -0.12914096 33.2731534 -0.16342886 37.66151714 -0.20333576 C41.06344925 -0.22973776 44.4652631 -0.2378773 47.86728859 -0.24144554 C49.4821295 -0.24626333 51.09696689 -0.25773663 52.71170616 -0.27648354 C70.78854633 -0.47304021 87.26089244 2.88426919 100.80200195 15.72387695 C112.65945065 28.23896566 116.65197786 42.74753684 116.30200195 59.7121582 C115.55898582 74.35783185 111.03438958 88.49110738 100.49731445 99.0637207 C86.38463889 111.64190436 72.43349875 112.78825198 54.3137207 112.92700195 C52.44585525 112.95522185 50.57801491 112.98515746 48.71020508 113.0168457 C44.18225628 113.08998841 39.65460309 113.1399965 35.1262207 113.17700195 C35.11265952 115.09364895 35.10299507 117.01032378 35.0949707 118.92700195 C35.08916992 119.9943457 35.08336914 121.06168945 35.07739258 122.16137695 C35.11630039 124.56432356 35.2621115 126.80828045 35.6262207 129.17700195 C36.40803166 134.45981029 36.41595286 139.85104325 36.1262207 145.17700195 C34.2897336 147.01348906 31.3492965 146.30745214 28.88793945 146.30981445 C27.59178711 146.31110352 26.29563477 146.31239258 24.96020508 146.3137207 C24.27788818 146.31162598 23.59557129 146.30953125 22.89257812 146.30737305 C20.86035332 146.30212244 18.82835955 146.3072637 16.79614258 146.3137207 C14.83064453 146.31178711 14.83064453 146.31178711 12.82543945 146.30981445 C11.63781006 146.30868652 10.45018066 146.30755859 9.2265625 146.30639648 C3.8436543 146.21099628 -1.51498254 145.66428212 -6.8737793 145.17700195 C-6.87801124 144.6229965 -6.88224318 144.06899105 -6.88660336 143.49819756 C-6.99034672 129.95732662 -7.0991013 116.4165037 -7.21311855 102.87571526 C-7.26811008 96.32723431 -7.32148993 89.77874876 -7.37109375 83.23022461 C-7.41909058 76.90188152 -7.47144218 70.57358764 -7.52672005 64.24530411 C-7.54698482 61.83980675 -7.5657223 59.43429598 -7.58285332 57.02877426 C-7.67136712 40.44958256 -7.67136712 40.44958256 -8.65661621 23.90625 C-9.01733475 19.37283514 -8.98179505 14.84657465 -8.9362793 10.30200195 C-8.93176758 9.41125977 -8.92725586 8.52051758 -8.92260742 7.6027832 C-8.91109152 5.46082524 -8.89317277 3.31890308 -8.8737793 1.17700195 C-5.92838944 -0.29569298 -3.28822313 0.02523613 0 0 Z " fill="#010101" transform="translate(62.873779296875,182.822998046875)"/>
<path d="M0 0 C1.42983215 -0.00788544 1.42983215 -0.00788544 2.8885498 -0.01593018 C6.03898505 -0.02913337 9.1889151 -0.0203922 12.33935547 -0.01025391 C14.52603248 -0.01227421 16.71270884 -0.01518528 18.89938354 -0.01895142 C23.48083922 -0.02337493 28.06211941 -0.01694146 32.64355469 -0.00292969 C38.52640774 0.01418229 44.40885083 0.00430827 50.29168892 -0.01364708 C54.80572624 -0.02446687 59.3196657 -0.02104722 63.8337059 -0.0132637 C66.00351891 -0.01125774 68.17334071 -0.01373476 70.34314346 -0.02070236 C73.36962832 -0.02828932 76.39544048 -0.01675219 79.421875 0 C80.32477264 -0.00607269 81.22767029 -0.01214539 82.15792847 -0.0184021 C84.64749146 0.00723267 84.64749146 0.00723267 88.58154297 0.38818359 C91.04548913 4.08410284 90.87157659 6.0261068 90.94799805 10.44238281 C90.96286255 11.15655365 90.97772705 11.87072449 90.99304199 12.60653687 C91.0392397 14.96859055 91.07083583 17.33056278 91.10107422 19.69287109 C91.12740885 21.33571022 91.15416336 22.97854267 91.18132019 24.62136841 C91.23576482 28.06620393 91.28254076 31.51104496 91.32446289 34.95605469 C91.37911496 39.36702484 91.4566173 43.77725707 91.54041004 48.18775749 C91.60168191 51.58143198 91.64879537 54.97519462 91.69186974 58.36914444 C91.71458128 59.99508218 91.74214139 61.62095979 91.77466774 63.2467308 C91.81847298 65.52297254 91.84270131 67.79863193 91.86206055 70.07519531 C91.88045486 71.36964569 91.89884918 72.66409607 91.9178009 73.99777222 C91.5554242 77.65153311 90.86596138 79.53551666 88.58154297 82.38818359 C85.59716797 83.04760742 85.59716797 83.04760742 81.83154297 83.09521484 C80.77904106 83.11823669 80.77904106 83.11823669 79.70527649 83.14172363 C77.33035709 83.18643041 74.95685451 83.19426185 72.58154297 83.20068359 C70.89557041 83.22090196 69.20961589 83.24267474 67.52368164 83.26586914 C63.72830641 83.3116294 59.93331251 83.33783425 56.13769531 83.35302734 C50.10667085 83.37899066 44.07674402 83.45204925 38.0461731 83.52827454 C32.66739071 83.59389005 27.28847059 83.6337201 21.90942383 83.67025757 C19.23220868 83.688842 16.55524908 83.71545428 13.87817383 83.7484436 C10.08770242 83.79011295 6.29799651 83.80543772 2.50732422 83.81396484 C0.78791374 83.84012878 0.78791374 83.84012878 -0.9662323 83.86682129 C-2.02256363 83.86396118 -3.07889496 83.86110107 -4.16723633 83.8581543 C-5.08885056 83.86402054 -6.01046478 83.86988678 -6.96000671 83.87593079 C-10.33764963 83.20581928 -11.44625887 82.20279925 -13.41845703 79.38818359 C-13.81350603 76.78574731 -13.96647479 74.6049893 -13.93603516 72.00512695 C-13.94304443 71.26809036 -13.95005371 70.53105377 -13.95727539 69.77168274 C-13.97485378 67.34007891 -13.96323536 64.90964259 -13.94970703 62.47802734 C-13.95240173 60.78699012 -13.95628396 59.09595441 -13.96130371 57.40492249 C-13.96719827 53.86330391 -13.95863637 50.32208918 -13.93994141 46.78051758 C-13.91713409 42.23829793 -13.93028594 37.69702273 -13.95423126 33.15483761 C-13.96867571 29.66411706 -13.96408986 26.17362101 -13.95372009 22.68289375 C-13.95104995 21.00792899 -13.95433269 19.3329439 -13.96363831 17.65800285 C-13.97378404 15.3187333 -13.95833372 12.98100058 -13.93603516 10.6418457 C-13.94413208 9.94825958 -13.952229 9.25467346 -13.96057129 8.54006958 C-13.90957353 5.65626035 -13.72448566 3.79710479 -11.97476196 1.45909119 C-8.02068655 -0.19738153 -4.24581694 -0.02868506 0 0 Z " fill="#FDFDFD" transform="translate(567.41845703125,95.61181640625)"/>
<path d="M0 0 C14.19 0 28.38 0 43 0 C43 17.28662571 43 17.28662571 42.33935547 25.5390625 C40.83597519 44.33264176 40.63555379 63.15778255 40.375 82 C40.36475422 82.73897522 40.35450844 83.47795044 40.34395218 84.23931885 C40.21671359 93.49273546 40.10240825 102.74627291 40 112 C40.98468262 111.96970703 41.96936523 111.93941406 42.98388672 111.90820312 C62.99475912 111.29922253 82.97754824 110.82343517 103 111 C103.53344276 139.93311449 103.53344276 139.93311449 100 147 C75.39353279 147.10200385 50.78809983 147.12637266 26.18457031 146.68161011 C24.06158011 146.64387104 21.938528 146.60946731 19.81542969 146.57839966 C16.8558289 146.53368329 13.89678488 146.47596047 10.9375 146.4140625 C10.05650635 146.40250626 9.1755127 146.39095001 8.26782227 146.37904358 C2.22933369 146.22933369 2.22933369 146.22933369 0 144 C-0.24609566 141.50500298 -0.24609566 141.50500298 -0.24050903 138.29269409 C-0.24325836 137.07830658 -0.24600769 135.86391907 -0.24884033 134.61273193 C-0.2417616 133.25988672 -0.23449198 131.90704249 -0.22705078 130.55419922 C-0.22648688 129.13520313 -0.22680282 127.71620645 -0.22793579 126.29721069 C-0.22851111 122.43789728 -0.21672789 118.57870744 -0.20278788 114.71942282 C-0.19031033 110.68886022 -0.18911237 106.65829499 -0.18673706 102.62771606 C-0.18051352 94.99207271 -0.16409091 87.35648642 -0.14403808 79.72086823 C-0.12170623 71.02933864 -0.11069249 62.33780637 -0.10064721 53.64625525 C-0.07972541 35.76413121 -0.04303831 17.88208543 0 0 Z " fill="#010101" transform="translate(880,183)"/>
<path d="M0 0 C6.1055471 -0.02464513 12.21106551 -0.04283371 18.31665039 -0.05493164 C20.39543156 -0.05997288 22.47420916 -0.06680574 24.55297852 -0.07543945 C27.53402586 -0.08751422 30.51502649 -0.09323024 33.49609375 -0.09765625 C34.89921059 -0.10539818 34.89921059 -0.10539818 36.33067322 -0.11329651 C37.19149002 -0.11337204 38.05230682 -0.11344757 38.93920898 -0.11352539 C40.08171364 -0.11685631 40.08171364 -0.11685631 41.24729919 -0.12025452 C43 0 43 0 44 1 C44.09984452 2.735976 44.13080807 4.476 44.1328125 6.21484375 C44.13410156 7.29443359 44.13539062 8.37402344 44.13671875 9.48632812 C44.13285156 10.62521484 44.12898438 11.76410156 44.125 12.9375 C44.13080078 14.59362305 44.13080078 14.59362305 44.13671875 16.28320312 C44.13542969 17.37439453 44.13414063 18.46558594 44.1328125 19.58984375 C44.13168457 20.57847412 44.13055664 21.56710449 44.12939453 22.58569336 C44.02736454 25.2779375 43.80305424 27.85416988 43.49603271 30.52479553 C42.93601015 36.03736118 42.88669841 41.4811035 42.93408203 47.01757812 C42.93875488 48.06921143 42.94342773 49.12084473 42.94824219 50.2043457 C42.95867893 52.46868457 42.971319 54.73301416 42.98596573 56.99732971 C43.00809908 60.5776078 43.02210385 64.15783218 43.03366089 67.73815918 C43.06716979 77.91080008 43.10921854 88.08335047 43.17138672 98.25585938 C43.2089217 104.49189529 43.23201754 110.72784212 43.24569321 116.963974 C43.2537666 119.3403524 43.26740214 121.71671847 43.28662491 124.09303284 C43.31294835 127.40132873 43.32098224 130.70919096 43.32470703 134.01757812 C43.3370639 135.00455688 43.34942078 135.99153564 43.3621521 137.00842285 C43.35813385 138.3539624 43.35813385 138.3539624 43.35403442 139.72668457 C43.35809862 140.50828194 43.36216282 141.2898793 43.36635017 142.09516144 C43.18500684 143.03805653 43.18500684 143.03805653 43 144 C39.08685966 146.60876023 35.78251575 146.26967935 31.24609375 146.23046875 C29.96110741 146.22978142 29.96110741 146.22978142 28.65016174 146.2290802 C26.84040948 146.22606053 25.03065976 146.21818273 23.22094727 146.20581055 C20.44473101 146.18754757 17.66884819 146.18530095 14.89257812 146.18554688 C13.13541377 146.1806318 11.37825169 146.17480353 9.62109375 146.16796875 C8.78775009 146.16685593 7.95440643 146.1657431 7.09580994 146.16459656 C1.23214903 146.11607452 1.23214903 146.11607452 -1 145 C-1.10091171 134.23608466 -1.0304829 123.51639151 -0.50219727 112.76367188 C0.05323164 100.43119232 0.12917607 88.12415399 0.09765625 75.78125 C0.09578374 73.57352735 0.0943638 71.36580427 0.09336853 69.15808105 C0.08960876 63.4373249 0.0798371 57.71659545 0.06866455 51.99584961 C0.05830707 46.12223674 0.05384068 40.24861943 0.04882812 34.375 C0.03820668 22.91665514 0.02121236 11.45832982 0 0 Z " fill="#020202" transform="translate(996,183)"/>
<path d="M0 0 C9.65070875 5.94509437 15.36969251 13.6042896 18.97265625 24.32421875 C21.15583719 36.91234712 19.01549392 48.01227819 12.15234375 58.75390625 C7.02531881 65.67044953 0.32766903 69.47233075 -7.66015625 72.44140625 C-19.40099465 74.01416653 -28.23717496 72.07027214 -37.77734375 64.8359375 C-45.04646595 58.26876916 -49.02392135 48.51577525 -50.03125 38.8984375 C-50.25649831 26.53628006 -47.05963475 16.64574878 -38.66015625 7.44140625 C-28.48146797 -3.10518643 -13.6263599 -6.50709699 0 0 Z " fill="#FDFDFD" transform="translate(1143.66015625,220.55859375)"/>
<path d="M0 0 C6.08094605 4.28796819 10.72656356 9.31192006 14 16 C14.31839844 16.64066406 14.63679687 17.28132813 14.96484375 17.94140625 C18.58084134 26.72311468 18.34370152 38.0814741 15.375 47 C11.0360285 57.13438099 2.99010615 66.18585125 -7.38671875 70.34375 C-15.85341386 72.46991559 -26.16416436 72.06588516 -34 68 C-44.06943527 60.72516571 -49.96003688 52.27116279 -52 40 C-53.05749709 28.67704335 -51.51823793 19.41822694 -44.6875 10.1875 C-33.0424577 -3.65798554 -16.93383147 -9.28881973 0 0 Z " fill="#FDFDFD" transform="translate(807,222)"/>
<path d="M0 0 C9.46358681 5.49581432 16.25500952 13.05250377 19.109375 23.79296875 C21.02205735 37.0478574 19.95863153 48.85343283 11.8125 59.8125 C5.41021339 67.29770125 -1.74298429 71.97133373 -11.6953125 72.75 C-21.86972611 73.10159961 -29.13869402 71.43938314 -37.1875 65.125 C-44.83519639 57.69503162 -48.78454103 49.38223901 -49.11889648 38.81933594 C-49.14758496 26.44886682 -46.69920776 17.07629478 -38.5 7.5 C-27.7610834 -2.61279602 -13.7180555 -6.39711101 0 0 Z " fill="#FDFDFD" transform="translate(277.5,220.5)"/>
<path d="M0 0 C1.44729492 -0.03673828 1.44729492 -0.03673828 2.92382812 -0.07421875 C10.95992132 -0.10677551 17.01261941 1.62020474 23.3125 6.6875 C29.16042225 14.08340167 29.32030038 21.14665645 28.4375 30.375 C27.30144883 36.0325348 25.35907932 40.1592868 20.65234375 43.62890625 C14.5361906 47.51153225 8.4702485 47.07894885 1.4375 46.8125 C0.19871094 46.79380859 -1.04007813 46.77511719 -2.31640625 46.75585938 C-11.36540179 46.57209821 -11.36540179 46.57209821 -12.5625 45.375 C-12.66551414 44.03506384 -12.70098453 42.68982035 -12.70776367 41.34594727 C-12.71414352 40.49158585 -12.72052338 39.63722443 -12.72709656 38.75697327 C-12.72820938 37.82783615 -12.7293222 36.89869904 -12.73046875 35.94140625 C-12.73379715 34.99313461 -12.73712555 34.04486298 -12.74055481 33.06785583 C-12.74562819 31.05785611 -12.74796301 29.04784792 -12.74780273 27.0378418 C-12.74998822 23.95412381 -12.76813683 20.87076394 -12.78710938 17.78710938 C-12.79004334 15.8385429 -12.79202812 13.88997471 -12.79296875 11.94140625 C-12.80015427 11.01429337 -12.80733978 10.08718048 -12.81474304 9.13197327 C-12.81166641 8.27445969 -12.80858978 7.41694611 -12.80541992 6.53344727 C-12.80684494 5.77701431 -12.80826996 5.02058136 -12.80973816 4.2412262 C-12.02151244 -1.70853293 -4.45805795 0.00579345 0 0 Z " fill="#FDFDFD" transform="translate(108.5625,215.625)"/>
<path d="M0 0 C1.06915649 0.01522705 1.06915649 0.01522705 2.15991211 0.03076172 C10.60616616 0.27746539 17.78936324 1.75291951 24.03515625 7.79296875 C28.10988927 12.60424243 27.74399512 18.52199624 27.625 24.53125 C27.19186182 29.45819675 25.56553116 32.18446884 22.125 35.625 C16.3561475 39.29608795 10.50039131 39.6750961 3.875 39.5625 C2.79412109 39.5615332 2.79412109 39.5615332 1.69140625 39.56054688 C-2.83178825 39.52373969 -7.14378089 39.05197742 -11.625 38.375 C-11.72385708 33.44545354 -11.79646125 28.51648353 -11.84472656 23.58618164 C-11.86484565 21.90899608 -11.89214451 20.23188069 -11.92675781 18.55493164 C-11.97526569 16.144518 -11.99796464 13.73503128 -12.015625 11.32421875 C-12.03627014 10.57412033 -12.05691528 9.82402191 -12.07818604 9.05119324 C-12.08041937 3.8730263 -12.08041937 3.8730263 -9.82177734 1.40307617 C-6.59556005 -0.10677057 -3.48973779 -0.0708783 0 0 Z " fill="#FCFCFC" transform="translate(404.625,212.625)"/>
<path d="M0 0 C0.90105469 0.00902344 1.80210937 0.01804688 2.73046875 0.02734375 C3.41753906 0.03894531 4.10460937 0.05054688 4.8125 0.0625 C4.65265625 1.07699219 4.4928125 2.09148437 4.328125 3.13671875 C2.83145455 14.53182328 4.06454392 25.16676009 6.15625 36.359375 C6.8125 40.0625 6.8125 40.0625 6.8125 43.0625 C2.3575 43.5575 2.3575 43.5575 -2.1875 44.0625 C-2.1875 43.4025 -2.1875 42.7425 -2.1875 42.0625 C-4.1675 42.5575 -4.1675 42.5575 -6.1875 43.0625 C-4.5375 41.0825 -2.8875 39.1025 -1.1875 37.0625 C-4.6525 37.5575 -4.6525 37.5575 -8.1875 38.0625 C-6.5375 36.0825 -4.8875 34.1025 -3.1875 32.0625 C-5.6625 32.5575 -5.6625 32.5575 -8.1875 33.0625 C-6.5375 31.0825 -4.8875 29.1025 -3.1875 27.0625 C-5.1675 27.0625 -7.1475 27.0625 -9.1875 27.0625 C-5.4375 23.1875 -5.4375 23.1875 -3.1875 22.0625 C-5.4975 21.7325 -7.8075 21.4025 -10.1875 21.0625 C-7.57235683 18.94211365 -4.99112384 16.93158256 -2.1875 15.0625 C-4.4975 14.7325 -6.8075 14.4025 -9.1875 14.0625 C-7.1875 12.0625 -7.1875 12.0625 -4.1875 10.0625 C-6.4975 9.0725 -8.8075 8.0825 -11.1875 7.0625 C-11.1875 6.7325 -11.1875 6.4025 -11.1875 6.0625 C-8.8775 5.4025 -6.5675 4.7425 -4.1875 4.0625 C-5.5075 3.0725 -6.8275 2.0825 -8.1875 1.0625 C-5.17259443 0.05753148 -3.14568308 -0.04085303 0 0 Z " fill="#EBEBEB" transform="translate(541.1875,133.9375)"/>
<path d="M0 0 C3.05831573 1.27171344 3.81632165 2.25640413 6 5 C6.92453603 9.6809842 6.63006971 13.93938562 4 18 C3.01 18.33 2.02 18.66 1 19 C-0.98 14.71 -2.96 10.42 -5 6 C-5.33 10.95 -5.66 15.9 -6 21 C-11.88235294 18.64705882 -11.88235294 18.64705882 -14 16 C-15.20190901 12.39427296 -15.32670315 9.7897565 -15 6 C-10.98349062 -0.15864772 -7.05022655 -1.0038011 0 0 Z " fill="#F2F2F2" transform="translate(540,107)"/>
<path d="M0 0 C2.31 0 4.62 0 7 0 C6.8460376 0.81549316 6.6920752 1.63098633 6.53344727 2.47119141 C5.92992659 6.46354283 5.67026987 10.43353464 5.46484375 14.4609375 C5.42186661 15.25150543 5.37888947 16.04207336 5.33460999 16.8565979 C5.19909774 19.36257498 5.06822846 21.86876928 4.9375 24.375 C4.84601053 26.08204775 4.75421683 27.78907923 4.66210938 29.49609375 C4.43788554 33.66388241 4.2178232 37.83187212 4 42 C1.69 42 -0.62 42 -3 42 C-3.34927061 32.2786347 -2.34446719 22.82902422 -1.24365234 13.19238281 C-0.75571349 8.80191093 -0.37583772 4.40125748 0 0 Z " fill="#B7B7B7" transform="translate(675,140)"/>
<path d="M0 0 C0.99 0.33 1.98 0.66 3 1 C2.86186975 5.14612814 2.71321141 9.29181162 2.5625 13.4375 C2.52318359 14.62150391 2.48386719 15.80550781 2.44335938 17.02539062 C2.40146484 18.15009766 2.35957031 19.27480469 2.31640625 20.43359375 C2.27974854 21.47572021 2.24309082 22.51784668 2.20532227 23.59155273 C2 26 2 26 1 27 C0.76346477 29.52596259 0.57826308 32.03107207 0.4375 34.5625 C0.39431641 35.27341797 0.35113281 35.98433594 0.30664062 36.71679688 C0.20028223 38.47761912 0.09961154 40.2387832 0 42 C-0.99 42 -1.98 42 -3 42 C-3.34927061 32.2786347 -2.34446719 22.82902422 -1.24365234 13.19238281 C-0.75571349 8.80191093 -0.37583772 4.40125748 0 0 Z " fill="#676767" transform="translate(675,140)"/>
<path d="M0 0 C3.29714793 0.32971479 4.6226839 0.6226839 7 3 C6.44444444 7.55555556 6.44444444 7.55555556 5 9 C2.5625 9.1875 2.5625 9.1875 0 9 C-2 7 -2 7 -2.25 4.5 C-2 2 -2 2 0 0 Z " fill="#ECECEC" transform="translate(543,94)"/>
<path d="M0 0 C4.55555556 0.55555556 4.55555556 0.55555556 6 2 C6.125 5 6.125 5 6 8 C5 9 5 9 2.5625 9.1875 C0 9 0 9 -2 7 C-2.25 4.5 -2.25 4.5 -2 2 C-1.34 1.34 -0.68 0.68 0 0 Z " fill="#EFEFEF" transform="translate(530,94)"/>
<path d="M0 0 C0.33 0 0.66 0 1 0 C2.04719236 10.10399118 1.76111565 18.94906141 0 29 C-0.21996887 30.62346588 -0.43059351 32.2482751 -0.625 33.875 C-0.74875 34.90625 -0.8725 35.9375 -1 37 C-1.33 37 -1.66 37 -2 37 C-2.13706626 29.50704419 -1.92113738 22.04556762 -1.5625 14.5625 C-1.50364624 13.26650879 -1.50364624 13.26650879 -1.44360352 11.94433594 C-1.23675058 7.87397834 -0.97149947 3.97580035 0 0 Z " fill="#E9E9E9" transform="translate(681,141)"/>
<path d="M0 0 C1.65 0 3.3 0 5 0 C5.33865141 2.99948391 5.67105073 5.99944926 6 9 C6.09539063 9.83917969 6.19078125 10.67835938 6.2890625 11.54296875 C6.85214909 16.73140945 7.09664316 21.78126961 7 27 C6.67 27 6.34 27 6 27 C2.70990259 18.66508657 2.83074763 9.83873472 3 1 C2.01 0.67 1.02 0.34 0 0 Z " fill="#CBCBCB" transform="translate(513,142)"/>
<path d="M0 0 C3.63 0 7.26 0 11 0 C12.20272819 2.40545638 12.10071472 3.94996953 12.0625 6.625 C12.05347656 7.44226563 12.04445313 8.25953125 12.03515625 9.1015625 C12.02355469 9.72804687 12.01195312 10.35453125 12 11 C11.67 11 11.34 11 11 11 C11 8.36 11 5.72 11 3 C7.37 3 3.74 3 0 3 C0 2.01 0 1.02 0 0 Z " fill="#A8A8A8" transform="translate(588,192)"/>
</svg>
