<?xml version="1.0" encoding="UTF-8"?>
<svg version="1.1" xmlns="http://www.w3.org/2000/svg" width="582" height="428">
<path d="M0 0 C1.21839066 -0.00637985 2.43678131 -0.0127597 3.6920929 -0.01933289 C5.00566269 -0.02044571 6.31923248 -0.02155853 7.67260742 -0.02270508 C9.04017674 -0.02592077 10.40774572 -0.02928508 11.77531433 -0.03279114 C14.64090776 -0.03877359 17.50647108 -0.040632 20.37207031 -0.04003906 C24.0302994 -0.03993762 27.68833362 -0.05357546 31.34651661 -0.07081127 C34.171655 -0.08197336 36.99674696 -0.08395696 39.82190514 -0.08342934 C41.82202469 -0.0851719 43.82212974 -0.09598762 45.82221985 -0.10697937 C57.60004274 -0.07746755 57.60004274 -0.07746755 62.96557617 2.14526367 C64.11456144 4.4432342 64.09279353 5.72919 64.09700394 8.28452873 C64.10084508 9.15689293 64.10468623 10.02925712 64.10864377 10.9280566 C64.10777729 11.89223951 64.10691081 12.85642242 64.10601807 13.849823 C64.10898919 14.86959767 64.11196031 15.88937235 64.11502147 16.94004929 C64.12373818 20.37939324 64.12521921 23.8187025 64.12670898 27.25805664 C64.13133502 29.7148852 64.13635938 32.17171304 64.14175415 34.62854004 C64.15489996 41.3185608 64.16136363 48.00856791 64.16576481 54.69859838 C64.16852546 58.87398881 64.17276247 63.04937692 64.17726898 67.22476578 C64.18946267 78.77988731 64.19976195 90.33500698 64.20314407 101.89013481 C64.20347342 102.9998743 64.20347342 102.9998743 64.20380943 104.13203276 C64.2040277 104.87365172 64.20424598 105.61527068 64.20447087 106.37936294 C64.20491434 107.88222178 64.20536091 109.38508062 64.20581055 110.88793945 C64.20614269 112.00614963 64.20614269 112.00614963 64.20648155 113.1469499 C64.21043074 125.23008629 64.227888 137.31316241 64.25117007 149.39627551 C64.27486764 161.79485661 64.28734519 174.19340745 64.28851199 186.59201157 C64.28942963 193.5562055 64.29520412 200.52032092 64.3133316 207.48449326 C64.33031605 214.03271452 64.33199717 220.58081278 64.3231926 227.12905884 C64.32241901 229.53654504 64.32680696 231.94403908 64.33665085 234.35150528 C64.3492737 237.63009635 64.34354615 240.90815051 64.33306885 244.18673706 C64.34515345 245.62631926 64.34515345 245.62631926 64.35748219 247.09498394 C64.30928668 253.51325453 64.30928668 253.51325453 62.56459522 256.72136402 C58.73956817 260.12748647 53.50125577 259.30625852 48.65698242 259.31323242 C47.85324692 259.31656082 47.04951141 259.31988922 46.22142029 259.32331848 C44.5244097 259.32837257 42.8273892 259.33072728 41.13037109 259.33056641 C38.54076709 259.33275296 35.95158925 259.35092468 33.36206055 259.36987305 C31.71036929 259.37280731 30.05867602 259.37479189 28.40698242 259.37573242 C27.25051964 259.3865107 27.25051964 259.3865107 26.07069397 259.39750671 C20.72962138 259.37491844 16.82109182 259.00077932 12.96557617 255.14526367 C12.76034659 252.63763614 12.68044831 250.23908302 12.68710327 247.72958374 C12.68131087 246.95608349 12.67551847 246.18258325 12.66955054 245.3856436 C12.6524729 242.77992199 12.64966741 240.17437667 12.64672852 237.56860352 C12.63743568 235.70625877 12.62726799 233.8439182 12.61628723 231.98158264 C12.5889004 226.91368979 12.57381219 221.84582487 12.5608592 216.77787733 C12.54526652 211.48605093 12.51846408 206.1942819 12.49282837 200.90249634 C12.44597196 190.8763241 12.40926114 180.85014116 12.3761555 170.82391512 C12.33798249 159.41171676 12.28855977 147.9995759 12.23817134 136.58742595 C12.13474947 113.10674777 12.04552252 89.62603268 11.96557617 66.14526367 C11.31916877 67.9096344 10.67397487 69.67444975 10.02929688 71.43945312 C9.66987503 72.42218704 9.31045319 73.40492096 8.94013977 74.41743469 C7.88787316 77.36275644 6.97941638 80.31641837 6.15307617 83.33276367 C5.82694336 84.49807617 5.50081055 85.66338867 5.16479492 86.86401367 C4.98094238 87.52272461 4.79708984 88.18143555 4.60766602 88.86010742 C3.25025743 93.69103683 1.85882848 98.51207367 0.46557617 103.33276367 C0.0386145 104.82876099 0.0386145 104.82876099 -0.39697266 106.35498047 C-1.81375375 111.25008641 -3.33495042 116.04990837 -5.12817383 120.82104492 C-6.60006163 124.77186465 -7.63612123 128.60447294 -8.47485352 132.7277832 C-9.68220304 137.94382815 -11.48743197 143.00106737 -13.15942383 148.08276367 C-13.97056414 150.57845329 -14.78043073 153.0745572 -15.58911133 155.57104492 C-15.79366943 156.20185974 -15.99822754 156.83267456 -16.20898438 157.48260498 C-20.90651082 171.99357809 -25.39750526 186.563781 -29.38085938 201.28735352 C-30.70419209 206.12280334 -32.29429632 210.78274808 -34.07348633 215.46557617 C-36.03261435 220.92883561 -37.47389239 226.5581055 -39.03442383 232.14526367 C-39.8784186 235.12742327 -40.73498475 238.10574622 -41.59692383 241.08276367 C-41.79471436 241.78030762 -41.99250488 242.47785156 -42.19628906 243.1965332 C-46.14704327 256.80016108 -46.14704327 256.80016108 -52.03442383 260.14526367 C-57.09848844 260.77827175 -59.9675332 260.18074383 -64.03442383 257.14526367 C-65.40551758 254.67651367 -65.40551758 254.67651367 -66.47192383 251.64526367 C-66.8818457 250.48768555 -67.29176758 249.33010742 -67.71411133 248.13745117 C-68.15734172 246.80776 -68.59725407 245.47695973 -69.03442383 244.14526367 C-69.27837891 243.41082031 -69.52233398 242.67637695 -69.77368164 241.91967773 C-72.82239899 232.68055338 -75.54155047 223.4017342 -77.98364258 213.98510742 C-79.3792042 208.88534136 -80.99199923 203.86631397 -82.61035156 198.83374023 C-84.7248809 192.22064694 -86.6760602 185.56691382 -88.59692383 178.89526367 C-90.50209366 172.28860126 -92.45177093 165.71999368 -94.65942383 159.20776367 C-96.48151953 153.83258135 -98.24467874 148.44603514 -99.90942383 143.02026367 C-100.13710449 142.30878174 -100.36478516 141.5972998 -100.59936523 140.86425781 C-102.28642723 135.2677412 -102.06795644 132.34329998 -99.61645508 127.12963867 C-96.44588373 121.33442216 -93.18110863 115.74840999 -89.42895508 110.31323242 C-87.46208704 107.2554964 -85.95723753 104.01869663 -84.38208008 100.74682617 C-82.92037618 97.92510213 -81.2699847 95.30670691 -79.53442383 92.64526367 C-77.32947482 89.25960003 -75.34680727 85.91143529 -73.59692383 82.27026367 C-71.08598094 77.04949133 -68.02966949 72.23354105 -64.95629883 67.32885742 C-62.78501779 63.73212155 -60.93232106 60.05091274 -59.10864258 56.27026367 C-57.65536798 53.39542229 -55.83288606 50.81570759 -54.03442383 48.14526367 C-53.02277448 46.2974272 -52.02385289 44.44259274 -51.03442383 42.58276367 C-48.99385576 38.80049861 -47.04310364 35.26139633 -44.03442383 32.14526367 C-43.37442383 32.14526367 -42.71442383 32.14526367 -42.03442383 32.14526367 C-43.03229486 35.47150043 -44.18256411 38.43096278 -45.78442383 41.52026367 C-47.81816213 45.46016261 -49.33630478 49.54724849 -50.84692383 53.70776367 C-53.0926763 59.87117848 -55.65087364 65.78459707 -58.49194336 71.69458008 C-60.9216659 76.7876783 -62.94389798 81.97614882 -64.89770508 87.26635742 C-65.91832562 89.851228 -67.07661664 92.21163963 -68.40942383 94.64526367 C-70.72109243 99.62424219 -69.19553044 102.89310392 -67.54614258 107.91870117 C-67.25368652 108.81911133 -66.96123047 109.71952148 -66.65991211 110.6472168 C-66.35037598 111.59532227 -66.04083984 112.54342773 -65.72192383 113.52026367 C-58.69822939 135.31421568 -58.69822939 135.31421568 -57.03442383 146.14526367 C-56.37442383 146.14526367 -55.71442383 146.14526367 -55.03442383 146.14526367 C-54.91067383 145.41307617 -54.78692383 144.68088867 -54.65942383 143.92651367 C-52.8767874 134.56767242 -50.03100363 125.75026541 -46.90356445 116.76245117 C-45.42928354 112.49347077 -43.99281747 108.30678799 -43.09692383 103.87573242 C-41.6876572 97.01853164 -39.28948186 90.40864505 -37.09692383 83.77026367 C-34.47357672 75.80608993 -31.88320393 67.86081286 -29.73876953 59.75073242 C-28.47518229 55.07655458 -27.0243329 50.45899687 -25.59692383 45.83276367 C-23.65050887 39.49614107 -21.7342565 33.1605708 -19.97192383 26.77026367 C-18.45926187 21.41373776 -16.73570298 16.15138416 -14.90942383 10.89526367 C-14.52838501 9.78465576 -14.52838501 9.78465576 -14.13964844 8.65161133 C-12.27535198 3.38619182 -12.27535198 3.38619182 -10.03442383 1.14526367 C-6.71434931 -0.02469109 -3.49585708 0.01243715 0 0 Z " fill="#FAF9F9" transform="translate(381.034423828125,110.854736328125)"/>
<path d="M0 0 C1.24486679 -0.00637985 2.48973358 -0.0127597 3.77232361 -0.01933289 C5.1275936 -0.0208616 6.48286411 -0.02197554 7.83813477 -0.02270508 C9.23291559 -0.02592 10.62769608 -0.02928425 12.0224762 -0.03279114 C14.94354026 -0.03877262 17.86457478 -0.04063201 20.78564453 -0.04003906 C24.52253893 -0.03993742 28.25924341 -0.05359581 31.9960928 -0.07081127 C34.87605148 -0.08194663 37.75596445 -0.08395781 40.63594246 -0.08342934 C42.01340452 -0.0846069 43.39086785 -0.0890161 44.76830864 -0.0967617 C46.69707656 -0.10659332 48.62590038 -0.10241112 50.5546875 -0.09765625 C51.65070786 -0.09908127 52.74672821 -0.10050629 53.8759613 -0.10197449 C56.96970959 0.15590551 59.10811449 0.68229012 61.84204102 2.14526367 C64.22346726 6.65616465 65.58344577 11.31938919 66.96313477 16.23120117 C67.14789871 16.88576797 67.33266266 17.54033478 67.52302551 18.21473694 C68.113826 20.31513802 68.6970701 22.41753888 69.27954102 24.52026367 C69.68610381 25.97477569 70.09267938 27.42928414 70.49926758 28.88378906 C72.85695477 37.35977636 75.03296264 45.85285255 76.95532227 54.43823242 C78.09055938 59.1842237 79.49823304 63.82550227 80.91723633 68.49267578 C82.61452489 74.16304479 84.00923931 79.8793681 85.34204102 85.64526367 C86.82187796 92.04574642 88.42359318 98.36201005 90.34204102 104.64526367 C92.47740154 111.64192402 94.1830037 118.69191894 95.81542969 125.82104492 C97.74092282 134.06218566 100.11722887 142.15234804 102.60717773 150.23925781 C102.89737793 151.19823975 103.18757812 152.15722168 103.48657227 153.14526367 C103.74801025 153.99088867 104.00944824 154.83651367 104.27880859 155.70776367 C105.19650962 159.67929686 105.26953858 162.27083683 103.46704102 165.95776367 C102.93079102 166.67963867 102.39454102 167.40151367 101.84204102 168.14526367 C101.18204102 168.14526367 100.52204102 168.14526367 99.84204102 168.14526367 C99.63579102 168.90838867 99.42954102 169.67151367 99.21704102 170.45776367 C97.27807214 175.65772567 94.57194175 180.32283991 91.84204102 185.14526367 C91.18822883 186.31444149 90.5345886 187.48371549 89.88110352 188.65307617 C87.03042242 193.72385396 84.18914224 198.75428258 80.84204102 203.52026367 C78.10308909 207.49879547 76.01500207 211.68900378 73.90454102 216.02026367 C71.13235082 221.70902897 68.14171984 227.05212806 64.64282227 232.33666992 C62.09343861 236.31282361 59.79745291 240.4229816 57.50610352 244.55200195 C56.11023513 247.04351399 54.87288723 249.11441746 52.84204102 251.14526367 C52.16376267 252.77313171 51.48649815 254.40143054 50.81469727 256.03198242 C49.28966033 259.34541609 47.37420846 262.39821628 45.46313477 265.50073242 C44.34696658 267.32156583 43.25717897 269.15874803 42.18969727 271.00854492 C41.6624707 271.91991211 41.13524414 272.8312793 40.59204102 273.77026367 C40.11250977 274.6081543 39.63297852 275.44604492 39.13891602 276.30932617 C38.71094727 276.91518555 38.28297852 277.52104492 37.84204102 278.14526367 C37.18204102 278.14526367 36.52204102 278.14526367 35.84204102 278.14526367 C38.71366767 267.92053242 42.6476522 258.4761074 47.19995117 248.89575195 C49.62527805 243.73982137 51.66525434 238.48492791 53.65454102 233.14526367 C55.11874832 229.44621363 56.8865995 225.96068788 58.70532227 222.42651367 C61.2843955 217.25064161 62.84204102 213.04162131 62.84204102 207.14526367 C37.76204102 206.81526367 12.68204102 206.48526367 -13.15795898 206.14526367 C-13.81795898 209.77526367 -14.47795898 213.40526367 -15.15795898 217.14526367 C-15.75411537 219.30542546 -16.39190729 221.45515553 -17.09545898 223.58276367 C-19.66573376 231.65667513 -21.79160983 239.71667498 -23.15795898 248.08276367 C-23.83584835 251.99757478 -24.62089565 254.9739345 -27.15795898 258.14526367 C-29.50876708 259.32066772 -30.93911324 259.28412956 -33.56005859 259.30639648 C-34.47117905 259.31600403 -35.3822995 259.32561157 -36.32102966 259.33551025 C-37.30748978 259.33976013 -38.29394989 259.34401001 -39.31030273 259.34838867 C-40.32137589 259.35408875 -41.33244904 259.35978882 -42.37416077 259.36566162 C-44.5152176 259.37511783 -46.65628903 259.38164806 -48.79736328 259.38549805 C-52.07862593 259.39521383 -55.35926505 259.4262358 -58.64038086 259.45776367 C-60.71785109 259.46429254 -62.79532581 259.46954346 -64.87280273 259.47338867 C-65.85723862 259.48573547 -66.8416745 259.49808228 -67.85594177 259.51080322 C-68.77021439 259.50780212 -69.684487 259.50480103 -70.62646484 259.50170898 C-71.43095566 259.50535461 -72.23544647 259.50900024 -73.0643158 259.51275635 C-75.70224778 259.04972583 -76.58459058 258.28655096 -78.15795898 256.14526367 C-78.60347822 251.16136851 -77.79435754 246.90765917 -76.51342773 242.10229492 C-76.3429744 241.45258224 -76.17252106 240.80286957 -75.99690247 240.13346863 C-75.45443955 238.07267763 -74.90033648 236.01524265 -74.34545898 233.95776367 C-73.98462628 232.59795143 -73.62459423 231.23792646 -73.26538086 229.87768555 C-72.7353736 227.87166443 -72.20455406 225.86589314 -71.66992188 223.86109924 C-70.58019917 219.7719301 -69.53087305 215.67485102 -68.51342773 211.56713867 C-67.51679211 207.54571561 -66.45416062 203.557594 -65.28295898 199.58276367 C-62.96192618 191.55659678 -60.85760224 183.47746952 -58.74731445 175.39379883 C-57.91662174 172.22450311 -57.06881338 169.05987196 -56.22045898 165.89526367 C-52.68420612 152.64834818 -49.23710296 139.37811511 -45.84155273 126.09448242 C-45.43556544 124.50821465 -45.02955951 122.92195165 -44.62353516 121.33569336 C-43.82305318 118.20806134 -43.02551469 115.07969732 -42.22949219 111.95092773 C-41.85679281 110.49354453 -41.48399446 109.03618663 -41.11108398 107.57885742 C-40.94358139 106.91722092 -40.7760788 106.25558441 -40.60350037 105.57389832 C-39.85792759 102.66891568 -39.04914909 99.82093322 -38.0949707 96.97680664 C-37.25516647 94.43901364 -36.68023689 92.03338308 -36.21264648 89.40698242 C-35.20555725 84.15657274 -33.79598761 79.08188729 -32.28295898 73.95776367 C-31.74558152 72.10516545 -31.2091273 70.25229918 -30.67358398 68.39916992 C-30.41383789 67.50214355 -30.1540918 66.60511719 -29.88647461 65.6809082 C-27.63973243 57.86098049 -25.56671938 50.00369074 -23.76342773 42.06958008 C-21.55081699 32.34443633 -18.7671675 22.84146375 -15.81567383 13.31665039 C-15.19809975 11.27778482 -14.62595908 9.23132244 -14.06420898 7.17651367 C-13.16779768 4.17817241 -12.69867622 2.90422176 -10.15795898 1.14526367 C-6.76104041 0.03471692 -3.55718825 0.01238037 0 0 Z M24.84204102 50.14526367 C22.58334938 57.61816897 20.58611153 65.0713868 18.96704102 72.70776367 C17.58749532 79.17657509 15.9176504 85.49476989 14.02954102 91.83276367 C11.18875646 101.41597993 8.97524557 111.10695868 6.83377075 120.86373901 C4.94924433 129.44499276 2.98587695 137.96718116 0.3515625 146.35498047 C-1.39934858 152.15321608 -1.57458113 156.72810731 -2.15795898 163.14526367 C15.99204102 163.14526367 34.14204102 163.14526367 52.84204102 163.14526367 C51.39876251 153.18987114 51.39876251 153.18987114 49.25610352 143.53198242 C48.96695068 142.4367627 48.67779785 141.34154297 48.37988281 140.21313477 C47.92802612 138.53985107 47.92802612 138.53985107 47.46704102 136.83276367 C46.84027336 134.46439725 46.21396928 132.0959081 45.58813477 129.72729492 C45.13736572 128.0327417 45.13736572 128.0327417 44.67749023 126.30395508 C43.59655101 122.21710771 42.55231029 118.12200519 41.52954102 114.02026367 C41.2446582 112.88331055 40.95977539 111.74635742 40.66625977 110.57495117 C40.05531204 108.03271373 39.47457505 105.49195512 38.91625977 102.93823242 C37.70849676 97.45902774 36.33840952 92.022932 34.96704102 86.58276367 C34.43318422 84.45646225 33.89933006 82.33016016 33.36547852 80.20385742 C33.10605469 79.17244629 32.84663086 78.14103516 32.5793457 77.07836914 C31.57970024 73.10163386 30.58551842 69.12354341 29.59204102 65.14526367 C29.15118164 63.38182617 29.15118164 63.38182617 28.70141602 61.58276367 C27.74829102 57.77026367 26.79516602 53.95776367 25.84204102 50.14526367 C25.51204102 50.14526367 25.18204102 50.14526367 24.84204102 50.14526367 Z " fill="#F8F7F7" transform="translate(180.157958984375,56.854736328125)"/>
<path d="M0 0 C0.66 0 1.32 0 2 0 C2.04632562 10.36160258 2.08187038 20.72318055 2.10362434 31.08486557 C2.11406476 35.89613247 2.12822872 40.70732855 2.15087891 45.51855469 C2.17259801 50.16102037 2.18456668 54.80341791 2.18975449 59.44593048 C2.19345191 61.21776655 2.20067198 62.98959886 2.21146011 64.76140594 C2.22596264 67.24173566 2.22797846 69.72178319 2.22705078 72.20214844 C2.23424133 72.93582642 2.24143188 73.66950439 2.24884033 74.42541504 C2.22152217 81.1684987 2.22152217 81.1684987 0 84 C-4.04425383 85.59954211 -8.52557537 85.14336585 -12.81640625 85.1328125 C-14.09571266 85.13424759 -14.09571266 85.13424759 -15.40086365 85.13571167 C-17.20043003 85.13639107 -18.99999889 85.1345535 -20.79956055 85.13037109 C-23.55588265 85.12501286 -26.31204229 85.13032758 -29.06835938 85.13671875 C-30.81770869 85.13605806 -32.56705791 85.13477707 -34.31640625 85.1328125 C-35.14145157 85.13483673 -35.96649689 85.13686096 -36.81654358 85.13894653 C-40.13075417 85.12533795 -42.83390954 85.05536349 -46 84 C-45.56467589 78.00220122 -42.84406915 73.77487541 -39.8125 68.75 C-39.05549805 67.46996094 -39.05549805 67.46996094 -38.28320312 66.1640625 C-36.86486125 63.77026745 -35.43511398 61.38376692 -34 59 C-33.44699219 58.07703125 -32.89398438 57.1540625 -32.32421875 56.203125 C-31.43438697 54.7226969 -30.54242534 53.24354709 -29.6484375 51.765625 C-27.27298052 47.78026115 -24.94927883 43.76537583 -22.625 39.75 C-22.14708008 38.92435547 -21.66916016 38.09871094 -21.17675781 37.24804688 C-19.02347772 33.52194885 -16.87699025 29.79248799 -14.7578125 26.046875 C-11.16752892 19.70318585 -7.47277731 13.48100576 -3.4453125 7.40234375 C-1.99893448 4.99822893 -0.96561757 2.62966728 0 0 Z " fill="#F4F2F2" transform="translate(254,285)"/>
<path d="M0 0 C0.66 0 1.32 0 2 0 C2.33 65.01 2.66 130.02 3 197 C2.34 196.67 1.68 196.34 1 196 C0.67 133.63 0.34 71.26 0 7 C-0.66 7.99 -1.32 8.98 -2 10 C-1.54177532 6.53058454 -1.10868317 3.32604951 0 0 Z " fill="#C0BCBC" transform="translate(393,170)"/>
<path d="M0 0 C0.66 0 1.32 0 2 0 C0.78361237 4.05462544 -0.8449909 7.62962531 -2.7890625 11.37890625 C-4.75476268 15.633696 -6.31018096 20.0435344 -7.89355469 24.45263672 C-9.03324163 27.59091602 -10.1377548 30.2066322 -12 33 C-12 30.69 -12 28.38 -12 26 C-14.03241727 26.63979849 -14.03241727 26.63979849 -16 28 C-16.67958603 30.39719432 -16.67958603 30.39719432 -17 33 C-18.0625 35.3125 -18.0625 35.3125 -19 37 C-19.66 37 -20.32 37 -21 37 C-18.087398 29.50472603 -14.48915128 22.66570947 -10 16 C-8.98835066 14.15216353 -7.98942906 12.29732907 -7 10.4375 C-4.95943193 6.65523494 -3.00867981 3.11613266 0 0 Z " fill="#7C7674" transform="translate(337,143)"/>
<path d="M0 0 C0.66 0.66 1.32 1.32 2 2 C4.10820797 1.6814823 4.10820797 1.6814823 6 1 C5.731875 1.515625 5.46375 2.03125 5.1875 2.5625 C4.30088607 4.38239176 3.50183365 6.24541588 2.75 8.125 C1.06644178 12.09278293 -1.12151674 15.69072917 -3.37890625 19.35546875 C-4.49507444 21.17630216 -5.58486205 23.01348436 -6.65234375 24.86328125 C-7.17957031 25.77464844 -7.70679688 26.68601562 -8.25 27.625 C-8.72953125 28.46289062 -9.2090625 29.30078125 -9.703125 30.1640625 C-10.13109375 30.76992188 -10.5590625 31.37578125 -11 32 C-11.66 32 -12.32 32 -13 32 C-9.82341929 20.68944746 -5.38038268 10.4379424 0 0 Z " fill="#C7B7B4" transform="translate(229,303)"/>
<path d="M0 0 C8.14508238 -0.04635413 16.29010958 -0.08188479 24.43529129 -0.10362434 C28.21748771 -0.11405858 31.99959383 -0.12821116 35.78173828 -0.15087891 C39.43217608 -0.17262021 43.08252705 -0.18457134 46.7330246 -0.18975449 C48.12527584 -0.19344794 49.51752238 -0.20066034 50.90973663 -0.21146011 C52.86067567 -0.22599126 54.81170218 -0.22681706 56.76269531 -0.22705078 C58.42815399 -0.23371262 58.42815399 -0.23371262 60.1272583 -0.24050903 C62.95713987 -0.0035883 64.60165414 0.53163704 67 2 C65.64752616 2.19934422 64.29284913 2.38374778 62.9375 2.5625 C62.18339844 2.66691406 61.42929688 2.77132812 60.65234375 2.87890625 C58 3 58 3 55.07421875 2.52734375 C49.79539843 1.73910478 44.48780715 1.7660799 39.16015625 1.68359375 C38.03806259 1.66281265 36.91596893 1.64203156 35.75987244 1.62062073 C32.19414075 1.5555137 28.62833873 1.49642159 25.0625 1.4375 C22.63736267 1.39427781 20.21223232 1.35066236 17.78710938 1.30664062 C11.85814612 1.19987236 5.92911373 1.09803552 0 1 C0 0.67 0 0.34 0 0 Z " fill="#928E8C" transform="translate(174,57)"/>
<path d="M0 0 C2.06341386 5.15853465 -0.58230505 10.13230332 -2.625 14.9375 C-3.07875 15.948125 -3.5325 16.95875 -4 18 C-5.125 14.25 -5.125 14.25 -4 12 C-4.99 11.67 -5.98 11.34 -7 11 C-6.690625 10.236875 -6.38125 9.47375 -6.0625 8.6875 C-5.32106407 6.81210323 -4.63771783 4.91315348 -4 3 C-1.9375 1.3125 -1.9375 1.3125 0 0 Z " fill="#D7D3D3" transform="translate(325,168)"/>
<path d="M0 0 C0.33 1.32 0.66 2.64 1 4 C1.99 3.67 2.98 3.34 4 3 C2.62992438 6.65573061 0.98982135 9.95467647 -1 13.3125 C-1.515625 14.19550781 -2.03125 15.07851563 -2.5625 15.98828125 C-3.036875 16.65214844 -3.51125 17.31601562 -4 18 C-4.66 18 -5.32 18 -6 18 C-4.23536928 11.89262558 -2.30442525 5.92566493 0 0 Z " fill="#65605D" transform="translate(222,317)"/>
<path d="M0 0 C0.34615998 5.65394631 -0.56574762 9.03006806 -3 14 C-3.35729936 12.67288808 -3.68325425 11.33737094 -4 10 C-4.268125 9.01 -4.53625 8.02 -4.8125 7 C-5 4 -5 4 -3.125 1.625 C-1 0 -1 0 0 0 Z M-8 7 C-7.01 7.33 -6.02 7.66 -5 8 C-5.99 8.33 -6.98 8.66 -8 9 C-8.12375 9.7425 -8.2475 10.485 -8.375 11.25 C-8.95486701 13.80141485 -9.73708739 15.7267573 -11 18 C-11.66 18 -12.32 18 -13 18 C-11.55049545 14.2089881 -9.84827434 10.6125362 -8 7 Z " fill="#AEA8A7" transform="translate(329,162)"/>
<path d="M0 0 C0.66 0 1.32 0 2 0 C0.50829734 4.9723422 -1.60457417 9.41845739 -4 14 C-4.66 13.01 -5.32 12.02 -6 11 C-5.01364431 6.46276383 -3.17108332 3.36927603 0 0 Z " fill="#6A6063" transform="translate(337,143)"/>
<path d="M0 0 C0.66 0.66 1.32 1.32 2 2 C4.10820797 1.6814823 4.10820797 1.6814823 6 1 C4.66666667 3.66666667 3.33333333 6.33333333 2 9 C2 8.01 2 7.02 2 6 C0.35 6.66 -1.3 7.32 -3 8 C-1.125 1.125 -1.125 1.125 0 0 Z " fill="#A7A4A2" transform="translate(229,303)"/>
<path d="M0 0 C1.49828872 3.88235819 0.43110582 6.43449288 -0.9375 10.25 C-1.31777344 11.32765625 -1.69804687 12.4053125 -2.08984375 13.515625 C-2.39019531 14.33546875 -2.69054687 15.1553125 -3 16 C-4.11328125 14.35546875 -4.11328125 14.35546875 -5 12 C-4.35546875 9.23828125 -4.35546875 9.23828125 -3.1875 6.3125 C-2.80980469 5.33925781 -2.43210937 4.36601562 -2.04296875 3.36328125 C-1 1 -1 1 0 0 Z " fill="#A19F9D" transform="translate(359,281)"/>
<path d="M0 0 C1.30324219 0.00773437 1.30324219 0.00773437 2.6328125 0.015625 C3.49648437 0.01046875 4.36015625 0.0053125 5.25 0 C7.86254827 0.27671851 9.5078213 0.9470255 11.7578125 2.265625 C6.15218208 3.09185171 1.33491898 3.33358156 -4.2421875 2.265625 C-2.2421875 0.265625 -2.2421875 0.265625 0 0 Z " fill="#BFBABA" transform="translate(229.2421875,56.734375)"/>
<path d="M0 0 C3.22533926 3.22533926 4.77421246 7.54398452 5.19140625 12.08203125 C5.18806499 13.72259188 5.10233557 15.36263084 5 17 C3.025333 14.03799949 2.28044646 11.90228368 1.375 8.5 C1.11460937 7.5409375 0.85421875 6.581875 0.5859375 5.59375 C0 3 0 3 0 0 Z " fill="#918988" transform="translate(295,295)"/>
<path d="M0 0 C1.23922223 3.71766668 0.57018942 5.43889537 -0.4375 9.1875 C-0.72496094 10.27417969 -1.01242188 11.36085938 -1.30859375 12.48046875 C-1.53675781 13.31191406 -1.76492187 14.14335937 -2 15 C-2.33 15 -2.66 15 -3 15 C-3.625 11.625 -3.625 11.625 -4 8 C-3.34 7.34 -2.68 6.68 -2 6 C-1.28591666 4.01643517 -0.61382258 2.01684563 0 0 Z " fill="#9E9A99" transform="translate(160,284)"/>
<path d="M0 0 C0.33 0 0.66 0 1 0 C1 2.97 1 5.94 1 9 C0.34 9 -0.32 9 -1 9 C-1.33 10.98 -1.66 12.96 -2 15 C-2.33 15 -2.66 15 -3 15 C-2.44854729 9.76119922 -1.57077907 5.02649303 0 0 Z " fill="#999593" transform="translate(331,236)"/>
<path d="M0 0 C0.97591583 3.38317487 0.85856655 5.5657338 0 9 C-0.639375 9.103125 -1.27875 9.20625 -1.9375 9.3125 C-2.9584375 9.6528125 -2.9584375 9.6528125 -4 10 C-4.33 10.99 -4.66 11.98 -5 13 C-4.39254603 8.14036821 -2.27241033 4.2594482 0 0 Z " fill="#8F8C8B" transform="translate(284,233)"/>
<path d="M0 0 C0.33 1.32 0.66 2.64 1 4 C1.99 3.67 2.98 3.34 4 3 C3.34 4.65 2.68 6.3 2 8 C1.01 8 0.02 8 -1 8 C-0.67 5.36 -0.34 2.72 0 0 Z " fill="#968783" transform="translate(222,317)"/>
<path d="M0 0 C1.18771723 3.42943519 0.80226223 5.37784675 -0.4375 8.75 C-0.86869141 9.94882813 -0.86869141 9.94882813 -1.30859375 11.171875 C-1.65083984 12.07679688 -1.65083984 12.07679688 -2 13 C-2.33 13 -2.66 13 -3 13 C-3.31563182 7.73946963 -2.66590937 4.55426184 0 0 Z " fill="#979392" transform="translate(378,219)"/>
<path d="M0 0 C1.43088528 2.86177057 0.59991697 4.93375773 0 8 C-0.99 8 -1.98 8 -3 8 C-3.1875 5.125 -3.1875 5.125 -3 2 C-2.01 1.34 -1.02 0.68 0 0 Z " fill="#CBC1C1" transform="translate(332,153)"/>
<path d="M0 0 C-0.375 2.9375 -0.375 2.9375 -1 6 C-1.99 6.495 -1.99 6.495 -3 7 C-3 6.01 -3 5.02 -3 4 C-3.66 4 -4.32 4 -5 4 C-4.67 3.01 -4.34 2.02 -4 1 C-2 0 -2 0 0 0 Z " fill="#D5CFCD" transform="translate(231,309)"/>
<path d="M0 0 C4.26157761 8.34334182 4.26157761 8.34334182 3.625 12.375 C3.41875 12.91125 3.2125 13.4475 3 14 C0.81005752 10.71508627 0.64722661 9.16904361 0.375 5.3125 C0.30023438 4.31863281 0.22546875 3.32476562 0.1484375 2.30078125 C0.09945312 1.54152344 0.05046875 0.78226563 0 0 Z " fill="#A3A09D" transform="translate(243,62)"/>
<path d="M0 0 C0.33 1.32 0.66 2.64 1 4 C-0.98 4.99 -0.98 4.99 -3 6 C-3 6.99 -3 7.98 -3 9 C-3.66 9 -4.32 9 -5 9 C-3.7508258 5.54074837 -2.32472205 2.85306797 0 0 Z " fill="#9C9697" transform="translate(227,333)"/>
<path d="M0 0 C0.33 0 0.66 0 1 0 C1.37211538 7.56634615 1.37211538 7.56634615 -0.51171875 9.76171875 C-1.00285156 10.17035156 -1.49398438 10.57898438 -2 11 C-1.85892253 9.54119891 -1.71197585 8.08296449 -1.5625 6.625 C-1.48128906 5.81289062 -1.40007812 5.00078125 -1.31640625 4.1640625 C-1 2 -1 2 0 0 Z " fill="#8C8584" transform="translate(361,138)"/>
<path d="M0 0 C0.33 0 0.66 0 1 0 C1.36923077 6.4 1.36923077 6.4 -0.5 9.4375 C-0.995 9.953125 -1.49 10.46875 -2 11 C-1.85892253 9.54119891 -1.71197585 8.08296449 -1.5625 6.625 C-1.48128906 5.81289063 -1.40007812 5.00078125 -1.31640625 4.1640625 C-1 2 -1 2 0 0 Z " fill="#968D8D" transform="translate(111,273)"/>
<path d="M0 0 C0.66 0 1.32 0 2 0 C1.01 2.97 0.02 5.94 -1 9 C-2.07349791 4.70600835 -1.79682816 3.80504787 0 0 Z " fill="#A09A9B" transform="translate(335,358)"/>
<path d="M0 0 C0.88492145 2.47778006 1.11637742 3.66056586 0.25 6.1875 C-1 8 -1 8 -4 9 C-2.94124926 5.59687262 -1.99097846 2.98646769 0 0 Z " fill="#A7A2A0" transform="translate(234,320)"/>
<path d="M0 0 C1.13643966 3.40931897 0.86747764 4.00335456 -0.4375 7.1875 C-0.72496094 7.90292969 -1.01242187 8.61835938 -1.30859375 9.35546875 C-1.53675781 9.89816406 -1.76492188 10.44085938 -2 11 C-3.1875 9.3125 -3.1875 9.3125 -4 7 C-2.6875 4.375 -2.6875 4.375 -1 2 C-0.67 1.34 -0.34 0.68 0 0 Z " fill="#908E8A" transform="translate(348,318)"/>
<path d="M0 0 C0.66 0 1.32 0 2 0 C2 1.65 2 3.3 2 5 C1.34 5 0.68 5 0 5 C-0.33 6.65 -0.66 8.3 -1 10 C-2.46726798 6.18510326 -1.43336419 3.70988378 0 0 Z " fill="#A79B9B" transform="translate(393,170)"/>
<path d="M0 0 C-0.25561323 2.3431213 -0.59270772 4.67843403 -1 7 C-1.99 7.495 -1.99 7.495 -3 8 C-3.6875 5.6875 -3.6875 5.6875 -4 3 C-1.72413793 0 -1.72413793 0 0 0 Z " fill="#918685" transform="translate(335,149)"/>
</svg>
