<?xml version="1.0" encoding="UTF-8"?>
<svg version="1.1" xmlns="http://www.w3.org/2000/svg" width="256" height="256">
<path d="M0 0 C4.68325692 2.32161454 7.39910199 5.40943481 9.140625 10.34375 C9.79821994 15.69845166 8.79728994 18.72880506 6.140625 23.34375 C4.4054199 25.3199798 2.6972164 27.13985133 0.81640625 28.9609375 C0.31014206 29.46295685 -0.19612213 29.9649762 -0.71772766 30.48220825 C-2.32048017 32.06830199 -3.93338961 33.64358338 -5.546875 35.21875 C-6.6419672 36.29877881 -7.73637546 37.37950158 -8.83007812 38.4609375 C-11.49867023 41.09663054 -14.17641736 43.72268479 -16.859375 46.34375 C-15.84359375 46.79363281 -14.8278125 47.24351563 -13.78125 47.70703125 C-4.8424412 51.81499591 2.233514 56.29475603 9.1875 63.37744141 C11.17011929 65.37344338 13.18598239 67.33244843 15.20986938 69.28649902 C17.2293477 71.23932312 19.23808456 73.20296781 21.24481201 75.16888428 C22.25205485 76.15397481 23.26183419 77.136479 24.27423096 78.11627197 C25.7111552 79.51119025 27.13317169 80.92141398 28.5546875 82.33203125 C29.3895166 83.15227783 30.2243457 83.97252441 31.08447266 84.81762695 C33.74644584 88.08804212 34.99118301 91.25922581 35.29296875 95.46875 C34.67336847 100.87617064 33.04341825 103.53171938 29.140625 107.34375 C26.13633659 109.18285318 23.7738591 109.66410461 20.265625 109.71875 C19.44320312 109.74710937 18.62078125 109.77546875 17.7734375 109.8046875 C11.71567309 108.74412934 7.46469497 103.91345486 3.3671875 99.625 C2.28413312 98.51665443 1.20079084 97.40859013 0.1171875 96.30078125 C-1.56071516 94.57335545 -3.23521054 92.84288099 -4.90429688 91.10693359 C-13.15410381 82.54860915 -20.26573188 75.36230135 -32.859375 74.96875 C-34.4371875 74.89527344 -34.4371875 74.89527344 -36.046875 74.8203125 C-46.75539681 76.29053988 -53.86807559 82.47089707 -61.19921875 89.95703125 C-62.12859756 90.88541306 -63.05797638 91.81379486 -64.01551819 92.77030945 C-65.96698369 94.72195287 -67.90784419 96.683362 -69.84106445 98.65307617 C-72.30405618 101.16156551 -74.78872623 103.6471617 -77.28127193 106.12624836 C-79.68112692 108.51777212 -82.06462471 110.92528811 -84.44921875 113.33203125 C-85.33463852 114.2156282 -86.22005829 115.09922516 -87.13230896 116.00959778 C-94.21550628 123.25645601 -98.88424064 130.08363564 -99.171875 140.46875 C-98.98799463 149.73632087 -95.97464595 155.51541853 -89.63671875 162.1953125 C-89.11389816 162.75335571 -88.59107758 163.31139893 -88.05241394 163.88635254 C-82.00734074 170.30571912 -75.84681752 176.61332118 -69.63110352 182.8671875 C-68.3151207 184.19481328 -67.00364902 185.52692455 -65.6965332 186.86328125 C-63.76715272 188.83550494 -61.82469057 190.7939738 -59.87890625 192.75 C-59.30678909 193.33962524 -58.73467194 193.92925049 -58.1452179 194.53674316 C-51.54712377 201.10044169 -43.13062782 206.19977418 -33.671875 206.71875 C-16.54324795 206.17270316 -5.93669061 191.58300354 5.08007812 180.18945312 C5.92119141 179.33416016 6.76230469 178.47886719 7.62890625 177.59765625 C8.37696533 176.82752197 9.12502441 176.0573877 9.89575195 175.26391602 C13.29446896 172.35680244 16.16723369 171.44993814 20.578125 170.96875 C25.91019678 171.53002071 28.69336642 173.93560651 32.453125 177.59375 C34.61790704 181.12154295 35.46303695 184.24841517 35.140625 188.34375 C33.14413373 194.09359964 29.70562498 198.36814951 25.4140625 202.56640625 C24.86634186 203.11558212 24.31862122 203.664758 23.75430298 204.23057556 C22.60095117 205.38227923 21.44269822 206.52909402 20.27978516 207.67114258 C18.52858805 209.39350043 16.79669874 211.13362317 15.06640625 212.87695312 C1.28163994 226.63769772 -13.15311388 236.08017054 -33.171875 236.65625 C-59.42845592 236.13235108 -75.44164132 219.1495149 -92.85742188 201.77124023 C-95.47327546 199.16729899 -98.10724787 196.58265454 -100.7421875 193.99804688 C-116.04910043 178.839359 -128.81927527 163.88485393 -129.109375 141.28125 C-128.79104858 111.67689295 -107.55093845 94.87097263 -88.16222548 75.44641185 C-86.63985567 73.92108139 -85.11806193 72.39517837 -83.59642982 70.86911201 C-78.8199928 66.07907853 -74.04161772 61.29099138 -69.26032466 56.50580496 C-63.76641954 51.00739851 -58.27916342 45.50246612 -52.79743785 39.99191755 C-48.53579364 35.70865188 -44.26839705 31.43117329 -39.99659711 27.15803629 C-37.45434575 24.61473988 -34.91455409 22.06910072 -32.38075829 19.51737785 C-29.56315676 16.68021795 -26.73372194 13.85515161 -23.90307617 11.03100586 C-22.65692787 9.77103539 -22.65692787 9.77103539 -21.38560486 8.48561096 C-15.2914274 2.43523377 -9.16894944 -3.2360998 0 0 Z " fill="#000000" transform="translate(156.859375,0.65625)"/>
<path d="M0 0 C0.87886871 -0.00852997 1.75773743 -0.01705994 2.66323853 -0.02584839 C4.09791222 -0.02448883 4.09791222 -0.02448883 5.56156921 -0.02310181 C6.57503418 -0.02981903 7.58849915 -0.03653625 8.63267517 -0.04345703 C11.98622021 -0.0624694 15.33956542 -0.066363 18.69316101 -0.06851196 C21.02480146 -0.07493805 23.35644109 -0.08166627 25.68807983 -0.08868408 C30.57805755 -0.10066526 35.46796457 -0.10436408 40.35795593 -0.10317993 C46.6192608 -0.10297679 52.88011151 -0.13027032 59.14130878 -0.16472435 C63.95835444 -0.18697988 68.77529062 -0.19101786 73.59238243 -0.18996048 C75.9004237 -0.19231879 78.20846788 -0.20115521 80.51645851 -0.21662521 C83.74796301 -0.23625547 86.97848587 -0.23045792 90.21000671 -0.21841431 C91.16038315 -0.22965332 92.11075958 -0.24089233 93.0899353 -0.25247192 C99.10933305 -0.19556334 102.63874422 0.77548097 107.57987976 4.26742554 C110.60592967 7.7978171 111.93518884 11.75564211 111.57987976 16.39242554 C110.79090635 20.36853906 109.24208742 23.17350852 106.57987976 26.26742554 C101.25095276 29.76131284 96.50804715 29.70060824 90.35527039 29.67147827 C89.33990707 29.67834152 88.32454376 29.68520477 87.27841187 29.692276 C83.93084122 29.71053844 80.58373941 29.70670755 77.23612976 29.70101929 C74.90495145 29.70558096 72.57377449 29.71088649 70.24259949 29.71690369 C65.36034171 29.72583343 60.47824752 29.72341264 55.59599304 29.71347046 C49.34134766 29.70197426 43.0872663 29.72220352 36.83269501 29.7513876 C32.01996783 29.7697369 27.20737618 29.76945974 22.3946228 29.76375008 C20.08855396 29.76359674 17.78247599 29.76965088 15.47644043 29.78204155 C12.25209684 29.79692719 9.02880008 29.78629183 5.80448914 29.76913452 C4.37824471 29.78363647 4.37824471 29.78363647 2.92318726 29.7984314 C-4.03829041 29.72090566 -7.51911347 27.78672089 -12.79512024 23.20492554 C-15.32021953 18.64032297 -15.3949931 14.35276981 -14.42012024 9.26742554 C-11.2411483 3.49400231 -6.67528385 0.02937974 0 0 Z " fill="#B2B2B2" transform="translate(116.42012023925781,126.73257446289063)"/>
<path d="M0 0 C4.30810363 2.28076074 7.44419417 4.83498309 10 9 C11.53512694 14.85267147 11.01988121 17.72975512 8.24395752 22.97946167 C6.30024965 26.13659219 3.91375826 28.63974048 1.2734375 31.22265625 C0.72571686 31.77183212 0.17799622 32.321008 -0.38632202 32.88682556 C-1.53967383 34.03852923 -2.69792678 35.18534402 -3.86083984 36.32739258 C-5.61203695 38.04975043 -7.34392626 39.78987317 -9.07421875 41.53320312 C-22.85898506 55.29394772 -37.29373888 64.73642054 -57.3125 65.3125 C-68.74509176 65.08438491 -79.3003209 62.15649054 -89 56 C-89.66 55.01 -90.32 54.02 -91 53 C-89.205625 53.0928125 -89.205625 53.0928125 -87.375 53.1875 C-82.43513317 53.1875 -79.00311804 51.65775286 -75.1875 48.5 C-73.00148715 45.73872061 -72.84137896 43.00961403 -72.8125 39.625 C-72.79832031 38.87476563 -72.78414062 38.12453125 -72.76953125 37.3515625 C-73.03702035 34.62226697 -73.88565734 32.49295631 -75 30 C-74.16597656 30.3609375 -73.33195312 30.721875 -72.47265625 31.09375 C-62.26120931 35.30465596 -55.29882611 36.71152461 -44.90063477 32.47900391 C-34.8491817 27.35387112 -26.81851903 16.8690037 -19.06054688 8.84570312 C-17.79887695 7.56276367 -17.79887695 7.56276367 -16.51171875 6.25390625 C-15.76365967 5.48377197 -15.01560059 4.7136377 -14.24487305 3.92016602 C-9.85174999 0.1624811 -5.69848772 -0.59984081 0 0 Z " fill="#FCA117" transform="translate(181,172)"/>
<path d="M0 0 C10.21353191 3.06328699 17.73855884 8.5348746 25.20996094 15.96948242 C27.2291252 17.96958875 29.27012806 19.94596681 31.31491089 21.91983032 C33.33000715 23.86999666 35.33410097 25.8312129 37.33575439 27.79516602 C38.34105743 28.77963564 39.34913016 29.76128547 40.36004639 30.73999023 C41.79727795 32.13515099 43.21968742 33.54553015 44.64160156 34.95629883 C45.47643066 35.77654541 46.31125977 36.59679199 47.17138672 37.44189453 C49.8333599 40.7123097 51.07809707 43.88349339 51.37988281 48.09301758 C50.76028253 53.50043822 49.13033231 56.15598696 45.22753906 59.96801758 C42.22325065 61.80712076 39.86077317 62.28837219 36.35253906 62.34301758 C35.53011719 62.37137695 34.70769531 62.39973633 33.86035156 62.42895508 C27.80258715 61.36839692 23.55160903 56.53772244 19.45410156 52.24926758 C18.37104718 51.14092201 17.2877049 50.03285771 16.20410156 48.92504883 C14.5261989 47.19762303 12.85170352 45.46714857 11.18261719 43.73120117 C0.66314979 32.44683745 0.66314979 32.44683745 -13.66308594 27.76489258 C-20.29042777 27.67241804 -24.86327991 28.01342706 -30.77246094 30.96801758 C-31.76246094 30.63801758 -32.75246094 30.30801758 -33.77246094 29.96801758 C-29.65392232 25.65163692 -25.50970681 21.36228475 -21.33959961 17.09570312 C-19.92501833 15.64090447 -18.51770173 14.17900491 -17.11791992 12.70996094 C-15.10352715 10.59845458 -13.06432069 8.51392921 -11.01855469 6.43286133 C-10.39847031 5.77148666 -9.77838593 5.110112 -9.13951111 4.42869568 C-4.67567046 -0.03963971 -4.67567046 -0.03963971 0 0 Z " fill="#FCA118" transform="translate(140.7724609375,48.031982421875)"/>
<path d="M0 0 C0.66 0.33 1.32 0.66 2 1 C0.77313477 2.21115479 0.77313477 2.21115479 -0.47851562 3.44677734 C-3.50258336 6.4347316 -6.52009811 9.4292292 -9.53564453 12.42578125 C-10.84342578 13.72348514 -12.15299369 15.01939099 -13.46435547 16.31347656 C-15.34551501 18.17046398 -17.22022122 20.03375562 -19.09375 21.8984375 C-19.97963806 22.76884171 -19.97963806 22.76884171 -20.88342285 23.65682983 C-22.29408351 25.06709628 -23.65260316 26.52917142 -25 28 C-25 28.66 -25 29.32 -25 30 C-26.65 30.33 -28.3 30.66 -30 31 C-24.33425951 24.07189276 -17.96966361 17.85795858 -11.625 11.5625 C-10.49586045 10.43838533 -9.36695222 9.31403826 -8.23828125 8.18945312 C-5.49484812 5.45694765 -2.74830015 2.72760991 0 0 Z " fill="#CC8116" transform="translate(137,48)"/>
</svg>
