<?xml version="1.0" encoding="UTF-8"?>
<svg version="1.1" xmlns="http://www.w3.org/2000/svg" width="256" height="256">
<path d="M0 0 C3.41278281 2.92102736 6.72774541 5.92293253 10 9 C10.59039062 9.5259375 11.18078125 10.051875 11.7890625 10.59375 C27.91854492 25.57658675 38.25811578 47.06450955 44 68 C44.50853516 69.76150391 44.50853516 69.76150391 45.02734375 71.55859375 C49.38835951 89.90701491 49.22270031 113.9092016 44 132 C43.81195801 132.68562012 43.62391602 133.37124023 43.43017578 134.07763672 C37.26233642 156.18274119 25.63623728 174.37191185 10 191 C9.4740625 191.59039062 8.948125 192.18078125 8.40625 192.7890625 C-6.57658675 208.91854492 -28.06450955 219.25811578 -49 225 C-50.17433594 225.33902344 -51.34867188 225.67804688 -52.55859375 226.02734375 C-70.90701491 230.38835951 -94.9092016 230.22270031 -113 225 C-113.68562012 224.81195801 -114.37124023 224.62391602 -115.07763672 224.43017578 C-137.18274119 218.26233642 -155.37191185 206.63623728 -172 191 C-172.88558594 190.21109375 -172.88558594 190.21109375 -173.7890625 189.40625 C-189.91854492 174.42341325 -200.25811578 152.93549045 -206 132 C-206.33902344 130.82566406 -206.67804688 129.65132812 -207.02734375 128.44140625 C-214.9124458 95.26583863 -207.43489595 59.75343014 -190 31 C-184.81427154 23.02007379 -178.50490675 15.91753144 -172 9 C-171.4740625 8.40960938 -170.948125 7.81921875 -170.40625 7.2109375 C-155.42341325 -8.91854492 -133.93549045 -19.25811578 -113 -25 C-111.82566406 -25.33902344 -110.65132813 -25.67804687 -109.44140625 -26.02734375 C-71.70868778 -34.99558023 -29.61165968 -24.66216037 0 0 Z M-166.39257812 30.13818359 C-180.21081383 46.1433272 -189.43113207 67.04037302 -192 88 C-192.1340625 89.09054688 -192.268125 90.18109375 -192.40625 91.3046875 C-195.09306409 119.69942727 -186.81281174 148.45803706 -168.90234375 170.71875 C-167.96068359 171.84796875 -167.96068359 171.84796875 -167 173 C-166.32066406 173.8146875 -165.64132813 174.629375 -164.94140625 175.46875 C-151.84353936 190.59783689 -132.97281757 204.00543649 -113 208 C-113 200.74 -113 193.48 -113 186 C-115.5575 186.226875 -118.115 186.45375 -120.75 186.6875 C-131.25661839 187.39919975 -140.40808886 186.10073483 -149.10546875 179.72265625 C-153.6087164 175.62795065 -155.83955804 170.33826892 -158.4375 164.9375 C-162.04417958 157.62333302 -166.58449386 152.93748691 -173.36328125 148.45703125 C-175.31242047 146.72187867 -175.62449315 145.54147391 -176 143 C-166.64455426 142.48238313 -160.13201392 143.67517526 -153 150 C-150.89668251 152.70881798 -148.99307668 155.51016165 -147.0625 158.34375 C-143.42324444 163.03067004 -138.83058254 166.59367991 -133 168 C-128.62987173 168.35865952 -124.37288674 168.27020359 -120 168 C-119.25621094 167.98839844 -118.51242188 167.97679687 -117.74609375 167.96484375 C-115.63238213 167.8381358 -115.63238213 167.8381358 -113 166 C-111.65752506 163.05705006 -110.7453983 160.17002655 -109.921875 157.04296875 C-108.99466557 153.98239185 -107.75100005 151.66092985 -106 149 C-106.56283691 148.88519287 -107.12567383 148.77038574 -107.70556641 148.65209961 C-124.36604439 145.17706411 -141.04304403 141.07679457 -151.73828125 126.65625 C-162.09989145 110.40677693 -164.94575223 89.27940397 -160.9375 70.5 C-159.06962307 64.17448442 -155.72090345 56.72090345 -151 52 C-151.12322771 49.95399514 -151.2534953 47.9081592 -151.42016602 45.86523438 C-152.10948934 37.27457326 -151.8944662 30.06505534 -149.69140625 21.6875 C-148.87542289 18.97827031 -148.87542289 18.97827031 -149 16 C-135.9083284 17.67127723 -125.03961788 21.64025475 -114 29 C-111.82925278 29.00041384 -111.82925278 29.00041384 -109.44921875 28.5390625 C-108.53390381 28.39686279 -107.61858887 28.25466309 -106.67553711 28.1081543 C-105.68948486 27.94871338 -104.70343262 27.78927246 -103.6875 27.625 C-86.20190277 25.08010892 -68.8334643 24.81845917 -51.53515625 28.796875 C-46.98863083 29.05811182 -45.15729578 27.7794072 -41.375 25.3125 C-32.56225201 19.85229888 -23.36783367 16.81316342 -13 16 C-12.31424907 18.99599921 -11.65145105 21.99636312 -11 25 C-10.79375 25.94875 -10.5875 26.8975 -10.375 27.875 C-9.62006171 34.16615246 -9.6408105 40.34747433 -10.875 46.5625 C-11.52209029 51.54420882 -9.33342626 54.4108591 -6.6328125 58.44921875 C1.82873827 71.66786146 1.49226314 88.67001699 -1 103.6875 C-3.63641888 115.12435938 -9.08058428 128.11840534 -19 135 C-29.07274649 141.25983184 -39.42625881 144.66413661 -51 147 C-51.97582031 147.19722656 -52.95164063 147.39445313 -53.95703125 147.59765625 C-54.63121094 147.73042969 -55.30539063 147.86320313 -56 148 C-55.65066406 148.67546875 -55.30132812 149.3509375 -54.94140625 150.046875 C-54.48636719 150.93890625 -54.03132812 151.8309375 -53.5625 152.75 C-53.11003906 153.63171875 -52.65757812 154.5134375 -52.19140625 155.421875 C-50.4168844 159.26182392 -49.87400023 162.55313038 -49.79467773 166.76855469 C-49.77473251 167.70922791 -49.75478729 168.64990112 -49.73423767 169.61907959 C-49.70916893 171.13021332 -49.70916893 171.13021332 -49.68359375 172.671875 C-49.66281265 173.70942932 -49.64203156 174.74698364 -49.62062073 175.815979 C-49.55528592 179.12725258 -49.49631483 182.43860482 -49.4375 185.75 C-49.39429951 187.99610185 -49.35068473 190.24219578 -49.30664062 192.48828125 C-49.19962097 197.99210457 -49.09782478 203.49600598 -49 209 C-41.81541259 206.754722 -34.99446377 204.34862312 -28.375 200.75 C-27.64917725 200.35941406 -26.92335449 199.96882812 -26.17553711 199.56640625 C-20.24371906 196.29294845 -15.04893031 192.52572509 -10 188 C-8.74123047 186.91912109 -8.74123047 186.91912109 -7.45703125 185.81640625 C15.0639097 166.15743056 27.95983848 139.79215205 30.75 110.0625 C31.57021338 95.4030499 29.52758581 80.946864 25 67 C24.47792969 65.37384766 24.47792969 65.37384766 23.9453125 63.71484375 C13.84791704 35.05913182 -9.11937798 12.85358573 -36.09716797 -0.13623047 C-81.95166607 -20.95137215 -133.40332103 -5.89256859 -166.39257812 30.13818359 Z " fill="#C8C9CB" transform="translate(209,28)"/>
</svg>
